if (_typeface_js && _typeface_js.loadFace) _typeface_js.loadFace({"glyphs":{"ο":{"x_min":11,"x_max":685,"ha":746,"o":"m 365 668 q 595 596 506 668 q 685 380 685 523 q 580 106 685 226 q 326 -14 475 -14 q 98 58 186 -14 q 11 271 11 130 q 18 346 11 309 q 53 459 25 384 q 167 601 81 534 q 365 668 253 668 m 132 235 q 173 93 132 149 q 296 37 215 37 q 490 159 423 37 q 558 421 558 282 q 512 561 558 503 q 386 619 466 619 q 239 548 299 619 q 155 381 179 478 q 132 235 132 307 "},"S":{"x_min":-34.03125,"x_max":653.65625,"ha":643,"o":"m 14 211 l 38 211 q 110 91 58 136 q 239 46 163 46 q 392 104 329 46 q 456 255 456 163 q 363 409 456 345 q 191 513 277 460 q 98 685 98 582 q 191 875 98 806 q 409 945 285 945 q 541 929 483 945 q 653 875 600 914 q 627 819 640 850 q 610 760 615 788 l 592 763 q 511 859 559 824 q 400 895 464 895 q 269 847 322 895 q 216 721 216 800 q 304 580 216 638 q 479 469 393 521 q 572 295 572 396 q 468 71 572 156 q 226 -14 365 -14 q 84 9 156 -14 q -34 77 12 33 q 14 211 1 138 "},"¦":{"x_min":15,"x_max":911,"ha":976,"o":"m 343 -9 q 112 79 210 -9 q 15 304 15 167 q 142 577 15 495 q 468 659 269 659 q 500 822 487 742 q 527 1009 513 902 q 560 1003 547 1005 q 596 1002 573 1002 q 626 1003 614 1002 q 662 1009 638 1005 q 614 812 633 894 q 581 653 595 730 q 817 555 724 633 q 911 338 911 477 q 791 81 911 175 q 508 -12 672 -12 l 453 -12 q 396 -372 421 -168 q 351 -367 372 -367 q 308 -367 328 -367 q 261 -372 289 -367 q 310 -181 290 -267 q 343 -9 331 -96 m 501 39 q 711 125 636 39 q 786 353 786 212 q 729 523 786 454 q 573 605 673 591 l 467 39 l 501 39 m 142 301 q 198 118 142 196 q 353 40 255 40 l 460 610 q 227 531 313 610 q 142 301 142 453 "},"/":{"x_min":-34.03125,"x_max":400.171875,"ha":376,"o":"m 400 1024 l 38 -127 l -34 -127 l 328 1024 l 400 1024 "},"Τ":{"x_min":67.015625,"x_max":754.34375,"ha":656,"o":"m 351 854 q 194 854 256 854 q 67 844 133 854 q 76 886 71 854 q 82 926 82 919 q 230 926 131 926 q 365 926 329 926 q 567 926 431 926 q 754 926 703 926 q 743 902 748 917 q 738 874 738 887 l 736 860 l 738 844 q 618 854 690 854 q 484 854 547 854 q 382 408 426 625 q 320 0 339 191 q 284 3 301 0 q 245 5 267 5 q 205 3 226 5 q 171 0 184 1 q 268 404 223 185 q 351 854 313 623 "},"y":{"x_min":-47.640625,"x_max":642.453125,"ha":593,"o":"m 87 -176 l 167 -34 l 114 220 l 63 465 l 13 654 q 51 647 34 650 q 85 645 68 645 q 115 647 99 645 q 157 654 130 649 q 198 368 174 492 l 250 109 l 347 291 q 436 460 394 375 q 525 654 477 545 q 583 645 556 645 q 610 647 596 645 q 642 654 624 649 q 334 144 480 404 q 72 -373 189 -116 l 32 -368 q -8 -368 12 -368 q -47 -373 -28 -368 q 38 -254 -2 -313 q 87 -176 70 -201 "},"≈":{"x_min":116,"x_max":999,"ha":1116,"o":"m 748 441 q 561 487 694 441 q 369 533 428 533 q 245 506 292 533 q 116 427 199 480 l 116 502 q 242 572 178 545 q 369 600 306 600 q 564 554 431 600 q 748 508 696 508 q 854 527 800 508 q 999 612 907 546 l 999 537 q 873 466 933 492 q 748 441 812 441 m 744 215 q 556 261 688 215 q 367 308 424 308 q 257 285 303 308 q 116 202 211 262 l 116 276 q 243 347 179 321 q 373 373 306 373 q 566 327 435 373 q 748 282 696 282 q 850 301 797 282 q 999 386 903 321 l 999 310 q 876 241 940 267 q 744 215 812 215 "},"Π":{"x_min":13.609375,"x_max":978.640625,"ha":991,"o":"m 573 859 l 325 859 q 232 453 277 689 q 159 3 187 216 l 88 3 q 61 3 72 3 q 13 0 50 3 q 121 450 74 215 q 200 926 168 685 q 391 926 262 926 q 566 926 519 926 q 781 926 637 926 q 978 926 926 926 q 866 480 917 741 q 790 3 815 220 l 721 3 q 692 3 703 3 q 646 0 680 3 q 820 859 763 416 l 573 859 "},"ΐ":{"x_min":7.671875,"x_max":451,"ha":327,"o":"m 126 655 q 197 647 163 647 q 266 655 233 647 q 182 311 213 474 q 151 0 151 148 q 114 1 131 0 q 75 2 97 2 l 7 2 q 68 230 44 130 q 109 442 93 330 q 126 655 126 553 m 82 869 q 126 850 108 869 q 145 805 145 831 q 127 762 145 780 q 82 744 109 744 q 40 762 56 744 q 24 805 24 780 q 41 850 24 831 q 82 869 58 869 m 231 946 q 249 989 233 967 q 283 1012 264 1012 q 316 998 302 1012 q 330 964 330 984 q 323 937 330 950 q 315 917 317 924 l 229 726 l 188 726 l 231 946 m 391 869 q 433 849 415 869 q 451 805 451 830 q 433 762 451 780 q 391 744 415 744 q 348 762 366 744 q 331 805 331 780 q 348 849 331 830 q 391 869 366 869 "},"g":{"x_min":-90,"x_max":646.671875,"ha":625,"o":"m 45 430 q 129 604 45 539 q 325 670 213 670 q 417 655 354 670 q 502 641 480 641 q 586 641 535 641 q 646 641 637 641 q 635 614 641 634 q 626 582 628 593 q 571 587 594 587 q 513 587 547 587 q 552 527 539 555 q 565 464 565 499 q 479 293 565 353 q 280 233 394 233 q 220 240 261 233 q 167 248 179 248 q 120 223 142 248 q 99 171 99 198 q 244 99 99 117 q 460 55 389 80 q 531 -82 531 30 q 419 -291 531 -211 q 174 -371 307 -371 q -8 -318 72 -371 q -90 -165 -90 -265 q -41 -44 -90 -96 q 80 34 7 6 q 20 72 40 47 q 0 138 0 96 q 43 217 9 187 q 133 273 77 248 q 67 343 89 306 q 45 430 45 380 m 449 482 q 415 583 449 543 q 322 623 382 623 q 206 560 250 623 q 162 421 162 498 q 191 325 162 365 q 277 286 221 286 q 402 343 355 286 q 449 482 449 401 m 1 -162 q 56 -275 1 -235 q 185 -315 111 -315 q 349 -261 277 -315 q 421 -116 421 -208 q 260 13 421 -3 q 119 13 156 13 q 33 -63 65 -21 q 1 -162 1 -105 "},"²":{"x_min":-3.1875,"x_max":423,"ha":486,"o":"m 380 425 q 374 400 378 416 q 370 376 370 384 l 372 357 q 268 357 341 357 q 191 357 195 357 q 79 357 158 357 q -3 357 0 357 l 0 387 q 249 592 165 512 q 333 769 333 672 q 307 840 333 812 q 237 868 281 868 q 169 845 199 868 q 124 783 139 822 l 112 783 q 83 831 105 808 q 161 884 119 867 q 254 901 203 901 q 372 864 322 901 q 423 760 423 827 q 294 556 423 647 q 89 414 165 465 l 126 414 l 158 414 q 250 414 199 414 q 380 425 300 414 "},"Κ":{"x_min":13.25,"x_max":819.03125,"ha":732,"o":"m 265 499 q 339 567 301 530 q 398 626 376 605 l 512 747 q 591 832 553 788 q 673 931 629 876 l 737 929 l 819 929 q 753 876 782 901 q 674 808 723 852 l 575 713 l 364 508 l 534 247 l 636 87 l 687 18 l 687 0 q 642 3 669 0 q 612 7 614 7 q 570 4 586 7 q 535 0 554 2 q 435 172 482 93 q 344 320 388 251 l 254 454 l 236 454 l 207 311 q 158 0 180 163 q 122 4 145 1 q 88 7 99 7 q 45 3 71 7 q 13 0 18 0 q 126 463 79 234 q 199 929 172 692 l 267 929 q 312 930 281 929 q 344 931 342 931 q 280 665 305 810 l 247 504 l 265 499 "},"ë":{"x_min":10,"x_max":605,"ha":651,"o":"m 141 235 q 190 100 141 153 q 318 47 239 47 q 426 76 371 47 q 528 152 482 106 l 543 138 q 527 93 535 117 q 515 49 519 69 q 409 0 463 16 q 297 -18 354 -18 q 88 61 167 -18 q 10 273 10 140 q 113 550 10 431 q 370 669 216 669 q 538 594 471 669 q 605 416 605 519 q 602 369 605 397 q 599 335 599 341 l 373 335 l 146 335 q 141 235 141 291 m 288 923 q 337 902 313 923 q 352 879 345 892 q 359 850 359 867 q 352 822 359 834 q 331 795 345 810 q 289 780 316 780 q 237 800 257 780 q 217 852 217 821 q 237 902 217 881 q 288 923 257 923 m 517 923 q 566 902 543 923 q 581 878 574 891 q 588 848 588 866 q 580 817 588 828 q 559 793 573 806 q 518 780 545 780 q 468 800 488 780 q 448 852 448 821 q 468 902 448 881 q 517 923 488 923 m 319 389 l 480 389 q 487 452 487 426 q 453 567 487 516 q 358 618 420 618 q 229 550 278 618 q 157 389 180 483 l 319 389 "},"e":{"x_min":11,"x_max":603.140625,"ha":651,"o":"m 142 236 q 190 99 142 153 q 318 46 238 46 q 426 75 370 46 q 528 152 482 105 l 543 137 q 512 48 524 94 q 409 0 465 18 q 295 -18 352 -18 q 89 61 168 -18 q 11 270 11 140 q 114 549 11 430 q 371 669 217 669 q 537 593 472 669 q 603 414 603 518 q 600 367 603 400 q 598 334 598 334 l 373 334 l 147 334 q 142 288 142 313 q 142 236 142 264 m 319 387 l 482 387 l 482 452 q 450 568 482 518 q 356 618 418 618 q 227 548 277 618 q 158 387 177 479 l 319 387 "},"ό":{"x_min":11,"x_max":715,"ha":746,"o":"m 365 668 q 595 596 506 668 q 685 380 685 523 q 580 106 685 226 q 326 -14 475 -14 q 98 58 186 -14 q 11 271 11 130 q 18 346 11 309 q 53 459 25 384 q 167 601 81 534 q 365 668 253 668 m 397 744 l 588 940 q 625 970 608 960 q 663 981 642 981 q 699 965 683 981 q 715 928 715 949 q 695 896 715 917 q 665 870 676 875 l 454 744 l 397 744 m 132 235 q 173 93 132 149 q 296 37 215 37 q 490 159 423 37 q 558 421 558 282 q 512 561 558 503 q 386 619 466 619 q 239 548 299 619 q 155 381 179 478 q 132 235 132 307 "},"J":{"x_min":-152.4375,"x_max":356.609375,"ha":377,"o":"m 235 352 l 205 176 q 96 -114 174 -11 q -147 -217 19 -217 l -152 -161 q -58 -139 -100 -161 q 8 -73 -16 -118 q 91 180 49 -18 q 162 581 133 379 q 206 930 191 783 q 253 926 238 927 q 281 925 268 925 q 321 927 299 925 q 356 930 344 929 q 288 636 318 776 q 235 352 258 496 "},"»":{"x_min":-6.8125,"x_max":510.421875,"ha":588,"o":"m 261 0 q 239 47 255 20 q 312 162 277 113 q 421 306 347 210 q 365 460 387 392 q 328 605 343 527 q 347 628 337 614 q 363 650 357 642 q 417 509 396 560 q 510 295 438 458 q 387 151 457 234 q 261 0 318 69 m 13 0 q -6 47 8 23 q 63 161 28 112 q 174 306 99 210 q 80 605 110 453 l 115 650 q 178 486 145 567 q 261 295 212 405 l 13 0 "},"©":{"x_min":79,"x_max":1036,"ha":1116,"o":"m 799 903 q 972 726 909 839 q 1036 481 1036 613 q 893 137 1036 281 q 556 -6 751 -6 q 220 138 362 -6 q 79 481 79 282 q 220 825 79 681 q 558 970 362 970 q 799 903 684 970 m 558 917 q 257 787 384 917 q 131 481 131 658 q 257 175 131 306 q 555 45 384 45 q 856 174 728 45 q 984 478 984 303 q 928 696 984 594 q 771 857 872 798 q 558 917 671 917 m 561 722 q 433 651 476 722 q 391 489 391 580 q 429 319 391 395 q 550 244 468 244 q 651 279 607 244 q 707 368 695 314 l 784 368 q 706 231 773 282 q 551 180 639 180 q 372 267 437 180 q 307 475 307 354 q 373 693 307 602 q 562 784 440 784 q 703 736 644 784 q 778 607 763 689 l 702 607 q 652 691 691 660 q 561 722 614 722 "},"ώ":{"x_min":12,"x_max":1068,"ha":1129,"o":"m 1068 384 q 965 102 1068 219 q 702 -15 862 -15 q 580 10 631 -15 q 491 94 529 36 q 397 13 450 41 q 280 -15 344 -15 q 87 73 163 -15 q 12 283 12 161 q 63 486 12 393 q 208 658 115 580 q 261 646 234 651 q 326 641 288 641 q 188 460 241 562 q 135 248 135 359 q 175 101 135 167 q 291 36 215 36 q 471 280 420 36 q 501 474 494 428 l 528 655 q 569 650 547 650 q 619 650 590 650 l 667 652 q 599 394 620 487 q 577 204 577 301 q 609 80 577 126 q 714 34 642 34 q 880 148 825 34 q 936 387 936 261 q 914 525 936 462 q 847 645 893 589 q 907 649 880 645 q 978 661 934 652 q 1045 534 1023 606 q 1068 384 1068 462 m 566 744 l 756 941 q 794 971 777 960 q 831 981 811 981 q 867 965 851 981 q 883 928 883 949 q 864 896 883 916 q 834 870 846 875 l 623 744 l 566 744 "},"≥":{"x_min":173,"x_max":943,"ha":1116,"o":"m 943 462 l 173 195 l 173 266 l 831 492 l 173 717 l 173 786 l 943 520 l 943 462 m 943 26 l 173 26 l 173 93 l 943 93 l 943 26 "},"^":{"x_min":8.171875,"x_max":394.71875,"ha":328,"o":"m 345 744 l 238 886 l 73 744 l 8 744 l 210 977 l 285 977 l 394 744 l 345 744 "},"«":{"x_min":44.921875,"x_max":563.5,"ha":588,"o":"m 540 650 q 563 603 547 623 q 482 479 525 538 q 379 345 439 420 q 432 197 406 276 q 475 45 458 117 q 454 21 464 36 q 439 0 445 6 q 370 173 405 90 q 292 353 336 256 l 540 650 m 291 650 q 300 625 295 637 q 315 603 306 614 q 229 473 276 538 q 132 345 182 408 q 189 192 167 258 q 225 45 210 126 q 206 21 216 36 q 191 0 197 6 q 123 173 157 90 q 44 353 88 256 q 185 520 151 480 q 291 650 219 560 "},"D":{"x_min":10.96875,"x_max":948,"ha":992,"o":"m 192 931 l 288 931 l 528 931 q 834 831 720 931 q 948 537 948 731 q 764 140 948 280 q 320 1 581 1 l 113 1 l 10 1 q 96 320 61 177 q 162 638 132 464 q 192 931 192 811 m 292 62 q 663 191 513 62 q 813 540 813 320 q 728 781 813 692 q 492 870 644 870 q 395 870 464 870 q 322 870 326 870 q 232 493 277 727 q 162 70 186 259 q 227 66 183 70 q 292 62 270 62 "},"w":{"x_min":21.390625,"x_max":1015,"ha":995,"o":"m 21 655 q 89 647 52 647 q 153 655 122 647 q 183 411 165 535 q 224 148 201 287 l 323 333 q 399 485 363 406 q 473 655 436 563 q 526 647 497 647 q 574 655 553 647 q 598 448 574 569 q 635 266 623 327 l 662 126 l 757 308 q 840 488 808 412 q 906 655 873 563 q 929 650 917 652 q 952 647 942 648 q 1015 655 983 647 q 829 317 925 492 q 669 0 733 141 q 641 3 658 0 q 620 7 624 7 q 595 3 612 7 q 574 0 579 0 q 543 182 557 108 q 478 512 529 256 q 228 0 352 269 l 182 6 q 156 3 171 6 q 133 0 142 1 q 21 655 92 330 "},"$":{"x_min":23.5625,"x_max":667.5625,"ha":734,"o":"m 75 177 l 91 174 q 154 72 114 107 q 259 37 193 37 l 333 420 q 184 507 241 458 q 127 638 127 556 q 216 826 127 756 q 427 910 305 896 q 433 954 430 933 q 436 995 436 976 q 472 990 450 990 q 495 990 494 990 q 484 951 490 976 q 474 908 478 926 q 576 890 524 908 q 667 842 628 873 q 621 743 637 796 l 604 743 q 555 813 593 788 q 461 850 517 838 l 399 510 q 565 414 506 462 q 624 280 624 366 q 526 63 624 145 q 295 -18 429 -18 q 283 -83 288 -49 q 278 -145 278 -116 l 240 -141 l 218 -144 q 235 -84 226 -120 q 249 -17 244 -47 q 135 2 189 -17 q 23 60 80 21 q 56 118 43 92 q 75 177 68 145 m 508 238 q 471 335 508 295 q 376 402 435 376 l 305 31 q 447 92 386 31 q 508 238 508 152 m 418 855 q 287 806 343 855 q 232 681 232 757 q 266 589 232 627 q 354 531 301 551 l 418 855 "},"‧":{"x_min":152,"x_max":315,"ha":417,"o":"m 233 645 q 290 620 266 645 q 315 561 315 595 q 290 503 315 529 q 233 477 266 477 q 176 500 200 477 q 152 558 152 524 l 156 592 q 185 631 165 617 q 233 645 206 645 "},"\\":{"x_min":54.4375,"x_max":304.890625,"ha":376,"o":"m 235 -127 l 54 1024 l 125 1024 l 304 -127 l 235 -127 "},"Ι":{"x_min":19.0625,"x_max":355.25,"ha":377,"o":"m 168 3 l 98 3 q 46 1 65 3 q 19 0 28 0 q 133 482 84 248 q 206 931 182 716 q 242 927 225 928 q 281 926 258 926 q 329 928 311 926 q 355 931 347 931 q 245 477 291 712 q 168 3 198 243 "},"Ύ":{"x_min":-38.5,"x_max":1156.5625,"ha":1048,"o":"m 644 380 q 566 583 588 526 q 503 740 544 641 q 424 931 462 839 q 465 926 456 926 q 499 926 474 926 q 542 928 511 926 q 575 931 572 931 q 621 772 602 830 q 741 449 640 714 l 885 674 q 959 799 919 730 q 1029 931 1000 869 l 1087 926 q 1131 928 1115 926 q 1156 931 1147 931 l 1051 794 l 960 663 l 768 387 l 738 236 q 706 0 716 118 q 665 3 688 0 q 631 7 643 7 q 591 4 606 7 q 556 0 575 2 q 607 199 584 90 q 644 380 629 308 m -38 744 l 153 940 q 189 969 171 958 q 226 981 207 981 q 263 965 247 981 q 280 928 280 950 q 260 896 280 917 q 231 870 241 875 l 18 744 l -38 744 "},"’":{"x_min":107.96875,"x_max":387,"ha":368,"o":"m 250 875 q 280 928 261 909 q 331 948 299 948 q 372 938 357 948 q 387 902 387 928 q 378 866 387 884 q 352 828 369 849 l 136 542 l 107 555 l 250 875 "},"Ν":{"x_min":2.71875,"x_max":980,"ha":981,"o":"m 66 252 l 123 503 q 172 728 153 624 q 204 943 191 832 q 231 937 224 937 q 245 939 235 937 q 259 943 254 942 q 404 713 338 814 q 564 474 470 612 q 747 208 657 336 l 827 624 q 854 776 841 691 q 876 931 868 862 l 924 926 q 954 928 939 926 q 980 931 970 930 q 867 460 916 690 q 779 -12 818 230 q 769 -9 777 -11 q 754 -5 760 -6 q 730 -12 737 -8 q 519 315 628 159 l 239 717 l 175 412 q 136 203 155 311 q 106 0 118 95 q 76 3 95 0 q 54 7 58 7 q 24 3 40 7 q 2 0 8 0 l 66 252 "},"-":{"x_min":14.96875,"x_max":372.9375,"ha":437,"o":"m 40 387 q 123 387 68 387 q 208 387 179 387 q 289 387 235 387 q 372 387 344 387 q 358 337 364 367 q 348 275 352 306 q 251 275 310 275 q 183 275 193 275 q 88 275 148 275 q 14 275 28 275 q 30 326 25 304 q 40 387 35 348 "},"Q":{"x_min":45,"x_max":1041,"ha":1080,"o":"m 314 7 q 115 149 185 42 q 45 398 45 257 q 207 789 45 626 q 593 952 370 952 q 914 841 787 952 q 1041 534 1041 731 q 968 262 1041 390 q 775 60 896 135 q 694 24 739 40 q 593 -6 649 8 q 793 -52 684 -29 q 988 -89 902 -75 l 988 -97 q 963 -143 974 -117 q 946 -193 952 -168 q 660 -81 752 -116 q 450 -16 568 -46 q 314 7 386 -10 m 182 414 q 256 148 182 251 q 484 45 330 45 q 788 194 672 45 q 904 540 904 344 q 819 788 904 686 q 593 890 735 890 q 329 779 435 890 q 206 572 224 668 q 185 452 188 476 q 182 414 182 427 "},"ς":{"x_min":27,"x_max":627.4375,"ha":660,"o":"m 465 -61 q 329 13 460 -29 q 112 114 198 56 q 27 302 27 173 q 132 564 27 459 q 394 668 238 668 q 513 651 455 668 q 627 600 570 634 l 593 495 l 568 495 q 495 584 542 549 q 394 619 449 619 q 223 539 291 619 q 155 350 155 459 q 262 173 155 229 q 468 100 363 138 q 573 -17 573 63 q 535 -127 573 -76 q 436 -228 497 -178 l 395 -192 q 445 -132 426 -164 q 465 -61 465 -100 "},"M":{"x_min":1.359375,"x_max":1116.109375,"ha":1145,"o":"m 209 931 q 247 928 220 931 q 274 926 273 926 q 308 927 289 926 q 338 931 328 929 q 349 875 343 906 q 363 814 356 844 l 435 538 l 528 187 l 769 567 q 990 931 879 749 l 1048 926 q 1084 927 1064 926 q 1116 931 1103 929 q 1014 471 1065 751 q 945 0 963 191 q 901 3 928 0 q 869 7 873 7 q 827 3 854 7 q 792 0 800 0 q 839 176 816 87 q 880 362 861 265 l 960 760 l 657 269 l 581 145 q 545 84 566 122 q 499 0 525 47 l 454 0 q 386 252 420 126 q 317 504 352 379 q 249 756 283 630 l 189 460 q 145 224 167 349 q 111 0 123 98 l 58 6 q 31 3 50 6 q 1 0 12 0 q 123 468 66 220 q 209 931 179 716 "},"Ψ":{"x_min":94,"x_max":1063.25,"ha":1046,"o":"m 616 925 q 656 928 629 925 q 688 931 684 931 q 620 663 649 794 q 555 343 592 533 q 618 343 593 343 q 707 356 644 343 q 820 467 770 369 q 893 712 869 565 q 918 927 905 820 l 989 927 l 1063 927 q 991 588 1027 756 q 861 341 954 420 q 540 262 769 262 q 521 150 533 223 q 502 2 509 77 l 435 2 q 405 2 416 2 q 356 0 394 2 q 390 130 367 38 q 423 266 412 221 q 195 332 296 266 q 94 520 94 398 l 94 595 l 126 777 l 152 932 l 219 927 l 295 927 l 247 725 q 226 615 235 674 q 218 510 218 556 q 283 384 218 424 q 441 344 348 344 q 480 546 460 441 q 516 746 501 652 q 541 931 532 839 q 578 928 554 931 q 616 925 603 925 "},"C":{"x_min":42,"x_max":897.65625,"ha":858,"o":"m 596 888 q 294 746 409 888 q 179 410 179 604 q 251 147 179 251 q 477 43 324 43 q 639 80 564 43 q 791 186 715 118 l 802 173 q 777 111 788 145 q 760 43 767 77 q 615 -2 688 13 q 468 -18 542 -18 q 316 0 398 -18 q 114 147 186 36 q 42 402 42 259 q 205 790 42 628 q 592 952 369 952 q 750 933 670 952 q 897 882 831 915 q 869 825 882 859 q 851 761 856 791 l 833 761 q 596 888 752 888 "},"œ":{"x_min":10,"x_max":1131,"ha":1180,"o":"m 666 265 q 712 109 666 171 q 846 47 758 47 q 955 76 901 47 q 1059 152 1010 105 l 1074 138 q 1042 49 1055 98 q 936 0 991 16 q 826 -18 882 -18 q 684 12 750 -18 q 581 106 619 42 q 303 -17 475 -17 q 91 62 173 -17 q 10 274 10 141 q 118 550 10 431 q 381 670 227 670 q 640 551 541 670 q 759 642 700 612 q 896 672 819 672 q 1065 596 1000 672 q 1131 413 1131 521 l 1131 335 l 900 335 l 671 335 q 666 265 666 305 m 133 234 q 175 94 133 152 q 297 36 218 36 q 491 158 424 36 q 558 421 558 280 q 513 562 558 505 q 388 619 468 619 q 242 549 301 619 q 158 394 183 480 q 133 234 133 308 m 851 389 l 1013 389 l 1013 459 q 979 570 1013 522 q 886 619 946 619 q 759 550 807 619 q 687 389 710 481 l 851 389 "},"!":{"x_min":61,"x_max":366,"ha":437,"o":"m 146 -13 q 85 10 110 -13 q 61 71 61 34 q 85 130 61 105 q 142 155 110 155 q 202 130 178 155 q 226 70 226 106 q 213 18 226 50 q 146 -13 200 -13 m 213 825 q 232 908 213 871 q 292 945 251 945 q 344 928 322 945 q 366 883 366 911 q 357 836 366 863 q 342 784 349 809 l 183 250 l 146 250 l 213 825 "},"ç":{"x_min":11,"x_max":601.96875,"ha":614,"o":"m 302 -18 q 94 63 177 -18 q 11 274 11 145 q 117 551 11 434 q 380 669 223 669 q 485 657 438 669 q 601 616 532 645 q 578 556 588 583 q 563 501 569 528 l 543 501 q 480 585 520 553 q 385 618 440 618 q 203 503 268 618 q 138 258 138 388 q 182 107 138 169 q 310 46 226 46 q 425 69 369 46 q 512 138 480 93 l 532 123 q 499 34 512 80 q 402 -4 452 9 q 302 -18 352 -18 m 115 -204 q 195 -235 162 -225 q 261 -246 227 -246 q 321 -234 297 -246 q 346 -190 346 -222 q 332 -147 346 -166 q 297 -126 318 -129 q 248 -129 269 -126 q 214 -133 227 -131 l 256 -1 l 301 -1 l 276 -83 q 296 -78 284 -79 q 321 -76 307 -76 q 405 -106 370 -76 q 440 -184 440 -136 q 396 -273 440 -243 q 292 -304 352 -304 q 204 -293 241 -304 q 115 -255 167 -283 l 115 -204 "},"{":{"x_min":114,"x_max":556,"ha":669,"o":"m 481 912 q 411 872 436 906 q 387 794 387 838 l 387 745 l 387 583 q 360 434 387 491 q 258 353 334 376 q 359 273 331 332 q 387 125 387 214 l 387 -35 q 404 -150 387 -109 q 461 -198 421 -191 q 519 -205 501 -205 q 556 -205 536 -205 l 556 -276 q 378 -239 449 -276 q 307 -106 307 -203 l 307 -28 l 307 130 q 288 244 307 194 q 220 307 270 294 q 158 317 188 317 q 114 317 127 317 l 114 389 q 262 429 218 389 q 307 577 307 470 l 307 737 q 331 903 307 842 q 440 977 355 963 q 556 983 493 983 l 556 912 l 481 912 "},"X":{"x_min":-93.921875,"x_max":769.03125,"ha":685,"o":"m 151 287 l 295 465 l 179 712 l 122 835 l 69 929 l 145 929 q 196 930 178 929 q 224 932 215 932 q 264 823 240 881 q 303 728 287 766 l 374 562 l 484 717 q 628 932 560 820 l 690 926 q 741 929 722 926 q 769 932 759 932 q 661 819 710 874 q 548 689 612 764 l 400 506 l 536 201 q 632 0 581 98 l 574 3 l 475 3 q 445 92 458 55 q 408 187 432 128 l 321 402 l 174 197 q 117 115 144 156 q 43 0 89 73 l -13 4 q -44 4 -34 4 q -93 0 -55 4 q 14 123 -21 79 q 151 287 51 166 "},"ô":{"x_min":10,"x_max":684,"ha":747,"o":"m 364 669 q 594 596 505 669 q 684 383 684 524 q 580 105 684 225 q 327 -15 477 -15 q 97 57 184 -15 q 10 274 10 130 q 16 348 10 320 q 52 455 23 376 q 167 601 80 534 q 364 669 255 669 m 565 744 l 458 886 l 293 744 l 228 744 l 429 977 l 507 977 l 614 744 l 565 744 m 133 234 q 175 94 133 152 q 297 36 218 36 q 492 158 425 36 q 559 421 559 280 q 514 562 559 505 q 388 619 469 619 q 242 549 301 619 q 158 394 183 480 q 133 234 133 308 "},"#":{"x_min":76.21875,"x_max":952.78125,"ha":1029,"o":"m 488 647 l 661 647 l 775 970 l 858 970 l 747 647 l 952 647 l 928 578 l 721 578 l 657 392 l 877 392 l 856 321 l 631 321 l 521 0 l 436 0 l 548 321 l 374 321 l 261 0 l 178 0 l 289 321 l 76 321 l 99 392 l 315 392 l 378 578 l 149 578 l 172 647 l 402 647 l 515 970 l 598 970 l 488 647 m 462 578 l 400 390 l 574 390 l 637 578 l 462 578 "},"ι":{"x_min":8.59375,"x_max":267.703125,"ha":329,"o":"m 127 655 q 198 647 164 647 q 267 655 235 647 q 183 311 214 474 q 152 0 152 148 q 115 1 132 0 q 76 3 98 3 l 8 3 q 69 230 45 130 q 110 442 94 330 q 127 655 127 554 "},"Ά":{"x_min":-87.328125,"x_max":741.625,"ha":792,"o":"m 485 955 l 514 946 l 546 955 q 612 544 595 641 q 661 297 628 447 q 741 0 693 148 q 699 3 726 0 q 664 7 672 7 q 615 4 635 7 q 581 0 594 1 q 562 187 581 80 q 534 351 544 293 l 382 351 l 228 351 l 153 213 q 95 108 123 162 q 39 0 66 55 q 1 3 24 0 q -24 7 -22 7 q -61 4 -45 7 q -87 0 -77 1 q 228 485 65 217 q 485 955 391 753 m 2 744 l 194 941 q 230 970 212 959 q 267 981 248 981 q 304 966 288 981 q 321 928 321 950 q 301 896 321 917 q 272 870 282 875 l 59 744 l 2 744 m 382 418 l 519 418 l 455 760 l 261 418 l 382 418 "},")":{"x_min":-112.78125,"x_max":290,"ha":365,"o":"m 203 571 q 175 766 203 669 q 96 942 147 863 l 137 961 q 250 747 211 859 q 290 514 290 635 q 190 141 290 312 q -80 -155 91 -29 l -112 -127 q 122 179 41 -6 q 203 571 203 365 "},"ε":{"x_min":31,"x_max":548.5625,"ha":629,"o":"m 522 512 q 450 586 492 558 q 360 615 408 615 q 271 582 308 615 q 235 497 235 549 q 280 405 235 430 q 406 369 326 380 q 400 329 400 351 l 400 308 q 354 315 390 309 q 311 320 318 320 q 205 283 248 320 q 162 182 162 245 q 210 78 162 115 q 328 42 259 42 q 433 66 386 42 q 533 139 480 91 q 521 42 521 93 q 312 -15 426 -15 q 117 32 203 -15 q 31 182 31 80 q 79 302 31 255 q 202 367 127 348 q 137 427 163 391 q 112 508 112 463 q 178 628 112 587 q 330 669 245 669 q 443 650 386 669 q 548 598 500 631 q 533 560 539 578 q 522 512 528 541 "},"Δ":{"x_min":-96.640625,"x_max":744.53125,"ha":817,"o":"m 744 4 q 533 4 673 4 q 322 4 393 4 q 111 4 251 4 q -96 4 -28 4 q 207 457 55 218 q 494 930 359 696 l 540 930 q 629 479 579 701 q 744 4 679 257 m 326 76 l 359 76 q 588 84 485 76 q 462 721 534 391 q 323 522 387 620 q 198 320 259 424 q 59 84 136 217 q 186 76 112 76 q 326 76 259 76 "},"â":{"x_min":-11,"x_max":560.671875,"ha":629,"o":"m 158 -14 q 38 29 87 -14 q -11 147 -11 72 q 95 317 -11 270 q 304 374 196 344 q 425 492 412 404 q 395 583 425 549 q 309 618 366 618 q 206 590 250 618 q 132 511 162 563 l 109 517 q 118 580 118 548 l 118 616 q 231 661 193 651 q 309 672 270 672 q 462 633 397 672 q 528 510 528 594 q 521 434 528 479 q 514 374 515 390 l 468 142 q 460 92 464 117 q 472 63 460 78 q 498 48 484 48 q 542 59 518 48 l 560 23 q 443 -10 509 -10 q 379 15 400 -10 q 351 89 358 41 q 261 11 305 36 q 158 -14 217 -14 m 484 744 l 376 887 l 208 744 l 145 744 l 347 977 l 423 977 l 530 744 l 484 744 m 101 159 q 128 86 101 114 q 200 58 156 58 q 305 98 254 58 q 367 194 356 139 l 395 345 q 173 283 245 313 q 101 159 101 253 "},"}":{"x_min":113,"x_max":556,"ha":670,"o":"m 361 577 q 397 437 361 486 q 519 389 433 389 l 556 389 l 556 318 q 407 277 453 318 q 362 130 362 237 l 362 -28 q 314 -230 362 -184 q 113 -276 266 -276 l 113 -205 q 237 -181 193 -205 q 282 -82 282 -157 l 282 -35 l 282 125 q 308 272 282 215 q 409 352 335 329 q 305 432 329 380 q 282 583 282 484 l 282 745 q 264 858 282 816 q 187 912 247 900 l 113 912 l 113 983 q 311 939 261 983 q 361 814 361 896 l 361 737 l 361 577 "},"‰":{"x_min":46,"x_max":1487,"ha":1546,"o":"m 198 -125 l 118 -125 l 826 1014 l 905 1014 l 198 -125 m 989 230 q 917 54 989 126 q 742 -18 845 -18 q 612 31 663 -18 q 562 161 562 80 q 634 336 562 262 q 808 411 707 411 q 929 368 880 411 q 989 254 979 326 l 989 230 m 477 731 q 405 551 477 627 q 230 475 333 475 q 97 526 149 475 q 46 662 46 577 q 119 837 46 763 q 292 911 192 911 q 413 869 366 911 q 477 752 459 828 l 477 731 m 1487 234 q 1415 55 1487 129 q 1240 -18 1343 -18 q 1109 30 1159 -18 q 1059 163 1059 79 q 1131 338 1059 265 q 1304 411 1204 411 q 1427 368 1376 411 q 1487 254 1477 326 l 1487 234 m 660 119 q 682 46 660 75 q 746 17 704 17 q 852 96 817 17 q 888 255 888 175 q 870 338 888 305 q 801 372 852 372 q 701 304 736 372 q 660 157 666 236 l 660 119 m 147 627 q 168 549 147 584 q 229 514 190 514 q 338 591 303 514 q 374 753 374 669 q 354 836 374 803 q 287 869 334 869 q 187 801 220 869 q 147 655 153 734 l 147 627 m 1157 119 q 1178 45 1157 73 q 1243 17 1200 17 q 1349 96 1314 17 q 1385 256 1385 176 q 1365 338 1385 304 q 1300 372 1345 372 q 1199 306 1233 372 q 1157 157 1165 240 l 1157 119 "},"Ä":{"x_min":-88.71875,"x_max":741.609375,"ha":793,"o":"m 485 954 l 515 947 l 548 954 q 600 628 572 795 q 662 301 627 462 q 741 0 696 140 q 699 3 726 0 q 664 6 672 6 q 615 3 636 6 q 581 0 594 1 q 562 185 581 79 q 534 351 544 292 l 383 351 l 227 351 l 153 215 q 77 78 81 86 q 37 0 73 70 q 3 3 25 0 q -24 7 -17 7 q -60 4 -43 7 q -88 0 -77 1 q 118 308 7 136 q 325 649 228 480 q 485 954 423 818 m 428 1203 q 476 1180 457 1203 q 498 1128 498 1158 q 476 1078 498 1097 q 427 1060 454 1060 q 376 1080 398 1060 q 355 1130 355 1101 q 376 1182 355 1161 q 428 1203 398 1203 m 657 1203 q 706 1180 684 1203 q 728 1129 728 1158 q 706 1080 728 1100 q 657 1060 684 1060 q 608 1080 628 1060 q 588 1130 588 1101 q 607 1181 588 1159 q 657 1203 627 1203 m 383 419 q 450 419 405 419 q 519 419 495 419 l 457 760 l 261 419 q 322 419 281 419 q 383 419 363 419 "},"a":{"x_min":-12,"x_max":562.671875,"ha":628,"o":"m 159 -14 q 37 29 87 -14 q -12 145 -12 72 q 94 316 -12 270 q 304 372 196 343 q 425 493 412 402 q 394 583 425 549 q 307 618 363 618 q 132 511 190 618 l 110 516 q 116 547 114 533 q 118 580 118 562 l 118 615 q 218 658 177 644 q 308 672 259 672 q 463 633 396 672 q 530 509 530 594 q 524 444 530 483 q 512 376 519 405 l 468 143 q 460 93 464 118 q 472 64 460 80 q 497 48 485 49 q 518 51 506 48 q 543 58 530 54 l 562 23 q 445 -11 506 -11 q 380 15 401 -11 q 350 88 359 41 q 261 11 305 37 q 159 -14 218 -14 m 100 161 q 128 86 100 115 q 201 57 157 57 q 305 98 254 57 q 367 194 356 140 l 396 347 q 171 284 242 313 q 100 161 100 254 "},"—":{"x_min":190.5625,"x_max":1094.328125,"ha":1338,"o":"m 204 373 l 1094 373 l 1083 290 l 190 290 l 204 373 "},"=":{"x_min":166,"x_max":950,"ha":1116,"o":"m 950 498 l 166 498 l 166 563 l 950 563 l 950 498 m 950 248 l 166 248 l 166 315 l 950 315 l 950 248 "},"N":{"x_min":2.71875,"x_max":980,"ha":981,"o":"m 66 252 l 123 503 q 172 728 153 624 q 204 943 191 832 q 231 937 224 937 q 245 939 235 937 q 259 943 254 942 q 404 713 338 814 q 564 474 470 612 q 747 208 657 336 l 827 624 q 854 776 841 691 q 876 931 868 862 l 924 926 q 954 928 939 926 q 980 931 970 930 q 867 460 916 690 q 779 -12 818 230 q 769 -9 777 -11 q 754 -5 760 -6 q 730 -12 737 -8 q 519 315 628 159 l 239 717 l 175 412 q 136 203 155 311 q 106 0 118 95 q 76 3 95 0 q 54 7 58 7 q 24 3 40 7 q 2 0 8 0 l 66 252 "},"ρ":{"x_min":-80.171875,"x_max":682,"ha":746,"o":"m 111 -25 q 80 -189 95 -104 q 49 -373 65 -274 q 21 -367 38 -370 q -12 -365 5 -365 q -44 -367 -27 -365 q -80 -373 -61 -370 q -6 -77 -36 -211 q 49 209 23 55 q 100 447 75 362 q 192 601 125 533 q 386 669 260 669 q 596 587 511 669 q 682 380 682 506 q 582 107 682 228 q 339 -14 483 -14 q 219 24 272 -14 q 141 126 167 62 l 111 -25 m 173 243 q 209 109 173 158 q 326 60 246 60 q 501 172 440 60 q 562 412 562 284 q 525 553 562 491 q 417 615 489 615 q 265 537 326 615 q 190 388 204 460 q 175 295 177 315 q 173 243 173 276 "},"2":{"x_min":-5.40625,"x_max":640,"ha":734,"o":"m 311 106 q 451 106 353 106 q 578 106 548 106 q 565 36 565 72 l 565 3 l 289 3 q 116 3 221 3 q -5 3 10 3 l 0 51 q 219 240 103 139 q 420 459 336 341 q 505 690 505 576 q 466 806 505 759 q 359 854 427 854 q 255 815 298 854 q 191 714 213 777 l 170 714 q 153 754 164 733 q 126 794 141 774 q 381 910 232 910 q 566 850 492 910 q 640 678 640 790 q 557 468 640 571 q 356 274 475 366 q 134 106 236 183 l 311 106 "},"ü":{"x_min":42,"x_max":695.421875,"ha":751,"o":"m 576 0 l 517 6 q 481 3 501 6 q 450 0 461 1 q 466 50 456 14 q 486 131 476 86 q 370 22 432 59 q 227 -15 308 -15 q 95 30 149 -15 q 42 155 42 76 q 70 383 42 238 q 122 653 98 527 q 159 648 137 651 q 186 646 181 646 q 251 653 219 649 q 184 378 203 467 q 165 186 165 290 q 186 104 165 136 q 254 66 208 71 q 488 214 441 66 q 563 653 535 362 q 599 649 580 651 q 630 647 617 647 q 661 649 640 647 q 695 653 681 652 q 613 320 650 511 q 576 0 576 129 m 326 923 q 376 902 352 923 q 389 878 383 891 q 396 848 396 866 q 385 806 396 824 q 367 791 381 803 q 326 780 353 780 q 277 801 298 780 q 256 852 256 823 q 277 902 256 882 q 326 923 298 923 m 556 923 q 607 902 583 923 q 619 878 613 891 q 626 848 626 866 q 615 806 626 824 q 599 791 611 803 q 556 780 586 780 q 507 801 528 780 q 486 852 486 823 q 507 902 486 882 q 556 923 528 923 "},"Z":{"x_min":-26,"x_max":799,"ha":769,"o":"m -26 23 q 305 447 155 251 q 611 863 455 644 l 445 863 q 302 856 371 863 q 137 838 232 849 q 148 878 145 861 q 156 928 152 894 q 308 928 201 928 q 424 928 416 928 l 529 928 l 799 928 l 799 914 q 596 650 681 763 q 403 393 511 538 q 164 79 295 249 l 323 79 q 490 79 415 79 q 730 101 566 79 q 713 56 721 84 q 703 4 706 27 q 476 4 627 4 q 248 4 325 4 q 116 4 179 4 q -26 0 52 4 l -26 23 "},"u":{"x_min":42,"x_max":693.984375,"ha":750,"o":"m 575 0 l 515 5 q 481 2 500 5 q 451 0 462 0 q 484 128 474 62 q 370 22 432 59 q 228 -14 308 -14 q 95 30 148 -14 q 42 155 42 74 q 66 359 42 224 q 122 655 91 494 q 184 645 157 645 q 216 648 199 645 q 251 655 233 651 q 182 380 202 470 q 163 184 163 289 q 185 103 163 135 q 255 65 208 70 q 487 213 440 65 q 563 655 534 362 q 628 647 594 647 q 693 655 661 647 q 612 317 650 509 q 575 0 575 125 "},"k":{"x_min":4.078125,"x_max":660.140625,"ha":649,"o":"m 185 1023 q 213 1019 200 1021 q 247 1017 225 1017 q 271 1017 259 1017 q 317 1023 283 1017 l 291 926 l 253 718 l 193 385 l 216 383 q 366 492 298 428 q 524 654 435 556 q 594 648 562 648 q 657 654 620 648 l 660 639 q 570 578 628 620 q 457 496 511 537 l 311 387 q 596 0 442 195 q 553 3 582 0 q 518 7 525 7 q 472 4 492 7 q 441 0 453 1 q 325 177 375 104 q 209 336 274 250 l 182 336 q 157 172 170 262 q 133 0 144 83 q 98 3 122 0 q 69 7 74 7 q 30 3 54 7 q 4 0 6 0 q 185 1023 140 506 "},"Η":{"x_min":13.96875,"x_max":977.640625,"ha":991,"o":"m 269 929 l 346 929 q 311 811 324 865 q 253 531 298 757 l 499 531 l 765 531 l 793 685 q 821 819 811 761 q 832 932 832 877 q 874 928 848 932 q 905 925 900 925 q 947 928 920 925 q 977 932 973 932 q 863 477 910 716 q 792 3 815 237 l 723 3 q 692 3 704 3 q 646 0 680 3 q 682 144 661 55 q 714 284 704 232 l 751 464 l 495 464 l 239 464 l 208 311 q 186 185 196 244 q 158 3 175 125 l 88 3 q 59 3 71 3 q 13 0 48 3 q 121 450 69 186 q 199 929 173 715 l 269 929 "},"Α":{"x_min":-87.296875,"x_max":741.625,"ha":792,"o":"m 485 955 l 514 946 l 546 955 q 612 544 595 641 q 661 297 628 447 q 741 0 693 148 q 699 3 726 0 q 664 7 672 7 q 615 4 635 7 q 581 0 594 1 q 562 187 581 80 q 534 351 544 293 l 382 351 l 228 351 l 153 213 q 95 108 123 162 q 39 0 66 55 q 1 3 24 0 q -24 7 -21 7 q -61 4 -45 7 q -87 0 -77 1 q 228 485 65 217 q 485 955 391 753 m 382 418 l 519 418 l 455 760 l 261 418 l 382 418 "},"ß":{"x_min":8.203125,"x_max":671,"ha":732,"o":"m 49 186 q 107 549 74 350 q 215 886 140 749 q 450 1024 290 1024 q 597 983 533 1024 q 662 861 662 942 q 564 701 662 780 q 466 579 466 622 q 568 440 466 533 q 671 265 671 346 q 581 74 671 154 q 379 -6 491 -6 q 253 29 317 -6 q 266 88 258 57 q 287 151 274 118 q 340 81 309 106 q 420 56 371 56 q 521 103 480 56 q 563 215 563 151 q 460 376 563 289 q 358 532 358 462 q 467 685 358 596 q 576 855 576 774 q 539 941 576 908 q 450 974 503 974 q 302 885 336 974 q 238 604 269 796 l 182 285 q 158 142 172 233 q 138 0 144 50 q 73 9 106 3 q 39 5 54 9 q 8 0 24 2 l 49 186 "},"é":{"x_min":10,"x_max":605,"ha":651,"o":"m 141 235 q 190 100 141 153 q 318 47 239 47 q 427 76 371 47 q 528 152 482 106 l 543 138 q 527 93 535 117 q 515 49 519 69 q 409 0 463 16 q 297 -18 354 -18 q 88 61 167 -18 q 10 273 10 140 q 113 550 10 431 q 370 669 216 669 q 538 594 471 669 q 605 416 605 519 q 602 380 605 401 q 599 335 599 358 l 373 335 l 146 335 q 141 235 141 291 m 270 743 l 459 941 q 495 969 478 959 q 534 980 512 980 q 571 965 554 980 q 588 930 588 951 q 569 897 588 916 q 535 869 551 877 l 326 743 l 270 743 m 319 389 l 480 389 q 487 452 487 426 q 453 567 487 516 q 358 618 420 618 q 229 550 278 618 q 157 389 180 483 l 319 389 "},"s":{"x_min":-23.21875,"x_max":458.21875,"ha":515,"o":"m 40 179 q 89 79 48 118 q 191 41 130 41 q 287 72 246 41 q 328 158 328 104 q 190 302 328 240 q 53 463 53 365 q 118 612 53 555 q 277 669 184 669 q 371 657 326 669 q 458 620 417 646 q 424 510 437 570 l 406 510 q 356 589 387 563 q 270 616 325 616 q 191 581 228 616 q 155 504 155 546 q 293 371 155 436 q 431 218 431 306 q 358 48 431 112 q 179 -15 285 -15 q 70 2 126 -15 q -23 52 14 19 q -6 115 -15 85 q 16 179 2 145 l 40 179 "},"B":{"x_min":12.609375,"x_max":704,"ha":745,"o":"m 199 930 l 298 930 q 382 930 322 930 q 446 930 442 930 q 627 885 551 930 q 704 742 704 840 q 627 575 704 633 q 430 497 550 518 q 599 439 533 488 q 666 291 666 389 q 561 79 666 158 q 322 1 457 1 l 128 1 l 12 1 q 117 440 71 201 q 199 930 163 679 m 581 727 q 536 843 581 800 q 419 887 491 887 q 370 884 397 887 q 320 878 343 881 q 280 708 302 811 q 244 520 258 604 q 483 560 386 520 q 581 727 581 600 m 254 57 q 452 116 366 57 q 538 282 538 175 q 477 419 538 372 q 322 466 416 466 l 234 466 q 190 251 208 344 q 160 57 173 157 q 219 57 200 57 q 254 57 238 57 "},"…":{"x_min":61,"x_max":927,"ha":1137,"o":"m 133 135 q 182 114 162 135 q 203 62 203 93 q 182 13 203 34 q 133 -7 162 -7 q 82 13 103 -7 q 61 62 61 33 q 69 89 61 77 q 133 135 85 135 m 495 135 q 544 113 523 135 q 566 62 566 91 q 544 13 566 33 q 494 -7 523 -7 q 444 12 464 -7 q 424 62 424 31 l 428 89 q 495 135 451 135 m 859 135 q 906 114 886 135 q 927 62 927 93 q 907 13 927 34 q 859 -7 888 -7 q 808 13 829 -7 q 787 62 787 33 q 792 89 787 79 q 859 135 810 135 "},"?":{"x_min":128,"x_max":535,"ha":588,"o":"m 211 156 q 278 125 267 156 q 291 87 290 94 q 293 69 293 81 q 291 51 293 58 q 284 31 290 44 q 255 2 278 17 q 207 -12 233 -12 q 151 10 175 -12 q 128 71 128 33 q 142 122 128 89 q 211 156 156 156 m 313 234 q 194 277 242 234 q 146 393 146 321 q 219 542 146 475 q 355 646 287 593 q 430 791 430 712 q 400 866 430 836 q 326 896 371 896 q 267 880 294 896 q 208 833 241 864 l 191 836 l 196 883 l 196 926 q 330 947 255 947 q 475 896 416 947 q 535 759 535 845 q 461 590 535 661 q 315 482 390 537 q 233 364 239 426 q 256 306 233 325 q 317 288 279 288 q 351 293 336 288 l 335 234 l 313 234 "},"H":{"x_min":13.96875,"x_max":979,"ha":991,"o":"m 200 929 l 268 929 q 312 930 282 929 q 344 932 343 932 q 314 823 327 876 q 253 531 302 770 l 498 531 l 763 531 l 793 685 q 821 818 811 761 q 832 932 832 876 q 873 927 852 929 q 900 925 894 925 q 941 927 924 925 q 979 932 958 929 q 867 490 913 728 q 791 3 821 252 l 721 3 q 685 1 709 3 q 646 0 660 0 q 683 143 668 82 q 713 282 698 204 l 750 464 l 495 464 l 239 464 l 208 311 q 159 0 181 163 q 122 4 146 1 q 88 7 99 7 q 45 3 72 7 q 13 0 19 0 q 119 444 68 184 q 200 929 170 703 "},"ν":{"x_min":22.71875,"x_max":590,"ha":643,"o":"m 233 289 l 270 130 q 394 320 331 224 q 461 535 461 438 q 440 641 461 589 q 575 659 501 641 q 587 602 585 613 q 590 575 590 592 q 542 423 590 505 q 396 199 494 342 q 273 0 297 56 q 224 8 248 3 q 200 5 213 8 q 173 0 187 2 q 132 215 154 114 q 80 430 109 316 q 22 652 51 543 q 115 648 62 648 l 167 648 q 190 479 175 563 q 233 289 206 395 "},"î":{"x_min":8.234375,"x_max":395,"ha":328,"o":"m 128 653 q 164 649 144 652 q 197 647 185 647 q 235 649 220 647 q 269 653 250 651 q 181 311 212 469 q 150 0 150 153 q 113 3 136 1 q 81 6 89 6 q 60 6 70 6 q 8 0 50 6 q 65 218 38 103 q 110 446 92 333 q 128 653 128 559 m 346 744 l 238 887 l 73 744 l 8 744 l 211 978 l 286 978 l 395 744 l 346 744 "},"c":{"x_min":12,"x_max":601.140625,"ha":613,"o":"m 300 -15 q 94 66 176 -15 q 12 273 12 147 q 117 551 12 434 q 378 669 222 669 q 488 655 433 669 q 601 614 542 641 q 578 557 587 584 q 564 500 569 530 l 542 500 q 477 584 516 553 q 383 616 437 616 q 200 503 264 616 q 137 260 137 391 q 181 110 137 174 q 308 47 226 47 q 423 70 367 47 q 509 140 480 94 l 531 124 q 511 81 519 98 q 497 37 504 63 q 300 -15 405 -15 "},"¶":{"x_min":170,"x_max":722.609375,"ha":578,"o":"m 493 967 l 722 967 l 710 909 l 653 909 l 465 4 l 408 4 l 596 909 l 488 909 l 300 4 l 243 4 l 357 558 q 223 601 276 558 q 170 717 170 645 q 259 881 170 796 q 493 967 349 967 "},"β":{"x_min":-89.5,"x_max":721,"ha":777,"o":"m -16 -367 q -52 -367 -33 -367 q -89 -371 -70 -367 q -24 -108 -50 -225 q 42 209 1 8 q 121 619 83 410 q 247 925 159 827 q 462 1024 335 1024 q 643 962 565 1024 q 721 798 721 900 q 666 630 721 699 q 516 527 612 561 q 633 436 590 494 q 676 299 676 378 q 587 77 676 169 q 370 -14 498 -14 q 240 14 298 -14 q 141 102 182 42 q 86 -139 110 -17 q 49 -373 61 -261 q 21 -369 39 -371 q -16 -367 3 -367 m 333 568 l 388 568 q 555 635 503 568 q 607 825 607 702 q 570 930 607 887 q 470 973 533 973 q 380 943 431 973 q 281 776 330 914 q 206 477 233 638 q 180 220 180 317 q 223 95 180 146 q 339 44 267 44 q 496 135 440 44 q 552 334 552 226 q 500 459 552 417 q 363 501 449 501 l 320 501 l 333 568 "},"Μ":{"x_min":1.359375,"x_max":1116.109375,"ha":1145,"o":"m 209 931 q 247 928 220 931 q 274 926 273 926 q 308 927 289 926 q 338 931 328 929 q 349 875 343 906 q 363 814 356 844 l 435 538 l 528 187 l 769 567 q 990 931 879 749 l 1048 926 q 1084 927 1064 926 q 1116 931 1103 929 q 1014 471 1065 751 q 945 0 963 191 q 901 3 928 0 q 869 7 873 7 q 827 3 854 7 q 792 0 800 0 q 839 176 816 87 q 880 362 861 265 l 960 760 l 657 269 l 581 145 q 545 84 566 122 q 499 0 525 47 l 454 0 q 386 252 420 126 q 317 504 352 379 q 249 756 283 630 l 189 460 q 145 224 167 349 q 111 0 123 98 l 58 6 q 31 3 50 6 q 1 0 12 0 q 123 468 66 220 q 209 931 179 716 "},"Ό":{"x_min":-37.640625,"x_max":1202,"ha":1244,"o":"m 766 952 q 1076 846 950 952 q 1202 555 1202 741 q 1038 149 1202 317 q 642 -18 875 -18 q 329 88 452 -18 q 206 387 206 195 q 232 571 206 439 q 412 827 259 703 q 766 952 566 952 m -37 744 l 154 940 q 190 969 172 958 q 227 981 208 981 q 264 965 248 981 q 281 928 281 950 q 261 896 281 917 q 231 870 242 875 l 19 744 l -37 744 m 757 887 q 458 734 572 887 q 345 385 345 582 q 425 139 345 235 q 649 43 505 43 q 949 189 834 43 q 1065 528 1065 335 q 1055 650 1065 595 q 1013 762 1045 705 q 911 853 981 820 q 757 887 841 887 "},"Ή":{"x_min":-38.5,"x_max":1210,"ha":1222,"o":"m 431 929 l 499 929 q 543 930 512 929 q 575 932 574 932 q 545 823 557 876 q 484 531 533 770 l 729 531 l 994 531 l 1024 684 q 1052 818 1042 760 q 1063 932 1063 876 q 1104 927 1083 929 q 1131 925 1125 925 q 1172 927 1155 925 q 1210 932 1189 929 q 1098 490 1144 727 q 1022 3 1052 252 l 952 3 q 915 1 940 3 q 877 0 891 0 q 914 143 899 82 q 944 282 929 204 l 981 464 l 726 464 l 470 464 l 439 311 q 390 0 412 163 q 353 4 376 1 q 319 7 330 7 q 276 3 303 7 q 244 0 250 0 q 350 444 299 184 q 431 929 401 703 m -38 744 l 153 941 q 189 970 171 959 q 226 982 207 982 q 263 966 247 982 q 280 929 280 951 q 260 897 280 918 q 231 870 241 876 l 18 744 l -38 744 "},"•":{"x_min":204,"x_max":782,"ha":985,"o":"m 492 788 q 697 701 612 788 q 782 493 782 614 q 697 284 782 371 q 492 198 612 198 q 287 284 371 198 q 204 493 204 371 q 225 605 204 552 q 286 701 247 658 q 380 765 326 743 q 492 788 433 788 "},"¥":{"x_min":38.109375,"x_max":747.25,"ha":734,"o":"m 272 289 q 154 289 232 289 q 38 289 76 289 l 51 338 q 143 338 88 338 q 200 338 198 338 l 284 338 l 302 435 l 72 435 l 81 486 l 288 486 q 214 672 247 592 q 121 887 181 752 q 153 884 130 887 q 189 881 176 881 q 219 884 198 881 q 250 887 239 887 q 288 769 268 827 q 330 652 308 710 l 387 495 l 485 644 q 626 887 559 758 l 679 882 q 718 884 691 882 q 747 887 745 887 q 645 757 687 812 q 555 633 604 702 l 447 486 l 654 486 l 645 435 l 411 435 l 393 338 q 507 338 449 338 q 624 338 566 338 l 613 289 q 498 289 575 289 q 383 289 421 289 q 356 138 368 222 q 336 0 344 54 q 300 2 317 0 q 261 5 284 5 l 198 0 q 237 133 220 65 q 272 289 254 202 "},"(":{"x_min":46,"x_max":453.140625,"ha":365,"o":"m 136 234 q 240 -136 136 27 l 201 -155 q 86 60 126 -49 q 46 291 46 170 q 146 664 46 494 q 420 961 247 834 l 453 935 q 217 623 299 806 q 136 234 136 441 "},"U":{"x_min":73,"x_max":971.65625,"ha":972,"o":"m 261 929 q 303 930 276 929 q 342 931 330 931 q 270 692 297 785 q 223 498 243 598 q 204 299 204 398 l 204 276 l 204 240 q 274 99 204 149 q 439 50 345 50 q 583 81 517 50 q 692 183 648 113 q 771 387 737 254 q 826 667 805 520 q 857 931 847 814 q 887 927 877 929 q 914 926 898 926 q 945 928 928 926 q 971 931 962 930 q 880 528 919 723 q 803 229 841 333 q 675 55 766 126 q 417 -15 585 -15 q 174 46 275 -15 q 73 245 73 108 q 77 305 73 281 q 105 438 81 329 q 154 684 128 548 q 194 929 180 820 l 261 929 "},"γ":{"x_min":-22.140625,"x_max":674.75,"ha":656,"o":"m 197 66 q 156 383 197 197 q 39 583 116 570 l -22 577 l -16 635 q 82 667 26 667 q 222 581 176 667 q 282 378 269 496 q 305 161 296 261 q 433 394 375 276 q 550 651 492 512 l 597 651 q 674 656 631 651 q 544 447 613 560 q 427 247 476 334 q 322 44 379 161 q 243 -340 277 -141 q 204 -336 220 -338 q 175 -334 188 -334 q 135 -338 158 -334 q 99 -343 111 -342 q 163 -131 130 -242 q 197 66 197 -20 "},"α":{"x_min":11,"x_max":804.640625,"ha":831,"o":"m 671 326 q 715 120 694 201 q 746 1 736 40 l 682 1 l 616 1 q 602 72 611 30 q 584 155 593 115 q 459 29 528 73 q 298 -14 390 -14 q 92 65 173 -14 q 11 273 11 145 q 116 548 11 427 q 373 669 222 669 q 532 625 471 669 q 639 488 593 581 q 661 542 650 513 q 694 652 671 570 l 748 652 l 804 652 q 671 326 729 492 m 132 237 q 175 92 132 149 q 300 35 217 35 q 486 135 411 35 q 561 351 561 236 q 511 533 561 449 q 373 618 462 618 q 194 495 256 618 q 132 237 132 372 "},"F":{"x_min":13.71875,"x_max":654.8125,"ha":607,"o":"m 200 928 l 445 928 l 654 928 q 631 846 639 893 q 556 856 593 856 q 473 856 520 856 l 325 856 q 300 768 311 816 q 277 664 288 720 l 251 531 l 370 531 q 479 531 449 531 q 566 540 509 531 q 554 501 558 521 q 548 453 551 481 q 467 462 506 462 q 381 462 428 462 l 239 462 l 207 309 q 180 177 202 284 q 158 0 158 70 q 115 4 133 2 q 85 7 98 7 q 45 3 70 7 q 13 0 19 0 q 120 444 76 217 q 200 928 164 671 "},"­":{"x_min":-32.671875,"x_max":649.25,"ha":670,"o":"m -17 375 l 649 375 l 635 290 l -32 290 l -17 375 "},":":{"x_min":50,"x_max":315,"ha":417,"o":"m 133 159 q 191 135 168 159 q 215 75 215 111 q 191 15 215 39 q 133 -8 168 -8 q 74 17 99 -8 q 50 78 50 42 q 52 94 50 88 q 60 114 55 100 q 86 143 66 128 q 133 159 107 159 m 233 646 q 290 621 266 646 q 315 562 315 596 q 290 504 315 530 q 233 478 266 478 q 176 501 200 478 q 152 559 152 525 l 156 593 q 185 632 165 618 q 233 646 206 646 "},"Χ":{"x_min":-93.921875,"x_max":769.03125,"ha":685,"o":"m 151 287 l 295 465 l 179 712 l 122 835 l 69 929 l 145 929 q 196 930 178 929 q 224 932 215 932 q 264 823 240 881 q 303 728 287 766 l 374 562 l 484 717 q 628 932 560 820 l 690 926 q 741 929 722 926 q 769 932 759 932 q 661 819 710 874 q 548 689 612 764 l 400 506 l 536 201 q 632 0 581 98 l 574 3 l 475 3 q 445 92 458 55 q 408 187 432 128 l 321 402 l 174 197 q 117 115 144 156 q 43 0 89 73 l -13 4 q -44 4 -34 4 q -93 0 -55 4 q 14 123 -21 79 q 151 287 51 166 "},"*":{"x_min":124.171875,"x_max":616.03125,"ha":662,"o":"m 336 666 q 160 573 245 627 q 147 626 156 599 q 124 676 139 653 q 321 713 230 688 q 247 765 283 742 q 151 821 211 788 q 220 903 192 853 q 271 836 242 873 q 351 749 301 799 q 361 850 361 796 q 361 955 361 903 q 405 940 374 948 q 464 933 435 933 q 426 837 444 885 q 400 742 409 788 q 478 775 446 758 q 582 834 510 792 q 616 730 582 783 q 508 715 553 723 q 415 692 463 708 q 495 635 450 665 q 586 583 541 606 q 547 546 573 576 q 513 501 521 516 q 383 658 449 591 q 375 601 378 628 q 373 540 373 573 q 373 495 373 517 q 375 452 373 473 q 337 468 348 465 q 306 472 325 472 l 272 472 q 303 558 287 510 q 336 666 318 606 "},"°":{"x_min":249,"x_max":574,"ha":669,"o":"m 427 1059 q 530 1020 486 1059 q 574 922 574 982 q 518 787 574 845 q 387 730 463 730 q 290 770 331 730 q 249 870 249 811 q 301 1002 249 946 q 427 1059 353 1059 m 390 773 q 474 818 441 773 q 507 918 507 863 q 485 989 507 961 q 424 1017 464 1017 q 341 967 369 1017 q 314 858 314 918 q 337 797 318 821 q 390 773 356 773 "},"V":{"x_min":47.640625,"x_max":819.390625,"ha":725,"o":"m 47 932 q 89 929 58 932 q 123 926 121 926 q 165 929 136 926 q 196 932 194 932 q 220 736 206 830 q 255 504 234 642 l 315 161 l 510 533 q 611 735 567 641 q 695 932 656 828 l 751 926 q 788 928 767 926 q 819 932 808 930 l 680 691 l 536 433 q 420 214 468 307 q 314 0 372 122 l 280 6 q 245 6 262 6 q 221 0 231 1 q 183 298 208 153 q 129 575 159 443 q 47 932 100 708 "},"Ξ":{"x_min":-48.609375,"x_max":835.328125,"ha":810,"o":"m 483 927 q 659 927 543 927 q 835 927 776 927 q 819 815 819 870 q 645 815 761 815 q 466 815 528 815 q 291 815 408 815 q 115 815 174 815 q 129 927 129 867 q 306 927 187 927 q 483 927 424 927 m 416 537 q 535 537 447 537 q 666 537 623 537 q 649 462 649 499 l 648 445 l 648 425 q 534 425 611 425 q 428 425 457 425 q 296 425 398 425 q 148 425 193 425 q 166 537 166 485 q 285 537 197 537 q 416 537 372 537 m 336 123 q 521 123 397 123 q 705 123 645 123 q 694 59 697 87 q 691 4 691 31 q 506 4 630 4 q 319 4 382 4 q 136 4 258 4 q -48 4 13 4 q -39 52 -43 20 q -35 109 -35 84 l -35 123 q 149 123 26 123 q 336 123 273 123 "}," ":{"x_min":0,"x_max":0,"ha":368},"Ϋ":{"x_min":30.078125,"x_max":763.5,"ha":655,"o":"m 250 382 q 149 639 204 503 q 30 928 94 775 l 104 928 l 182 928 q 226 779 204 846 q 347 449 249 713 l 492 674 q 566 800 528 733 q 636 928 604 866 l 692 928 l 763 928 l 657 793 l 564 663 l 375 388 l 344 234 q 311 0 322 119 q 271 3 294 0 q 236 7 249 7 q 196 4 212 7 q 163 0 181 2 q 200 147 183 69 q 250 382 217 224 m 343 1203 q 369 1198 357 1203 q 387 1184 381 1193 q 398 1173 394 1176 q 411 1128 411 1151 q 404 1096 411 1107 q 385 1072 397 1084 q 341 1060 372 1060 q 292 1081 313 1060 q 271 1130 271 1103 q 292 1182 271 1161 q 343 1203 314 1203 m 571 1203 q 614 1188 602 1203 q 631 1166 626 1173 q 641 1129 641 1147 q 634 1100 641 1111 q 615 1074 628 1089 q 571 1060 601 1060 q 522 1081 543 1060 q 501 1130 501 1103 q 521 1182 501 1161 q 571 1203 541 1203 "},"0":{"x_min":29,"x_max":692,"ha":734,"o":"m 423 909 q 626 813 561 909 q 692 573 692 718 q 593 170 692 358 q 302 -18 494 -18 q 93 75 158 -18 q 29 324 29 169 q 33 405 29 363 q 60 553 38 448 q 178 784 82 659 q 423 909 274 909 m 143 265 q 178 100 143 169 q 298 31 213 31 q 461 136 400 31 q 548 381 521 240 q 575 626 575 523 q 539 789 575 720 q 421 858 504 858 q 237 724 283 858 q 172 492 190 591 q 148 354 153 392 q 143 265 143 315 "},"”":{"x_min":100.328125,"x_max":637,"ha":594,"o":"m 243 876 q 275 930 260 913 q 323 947 290 947 q 363 937 349 947 q 378 902 378 927 q 369 865 378 883 q 345 829 360 847 l 128 543 l 100 555 l 243 876 m 502 876 q 534 928 518 910 q 583 947 551 947 q 623 937 609 947 q 637 903 637 928 q 630 872 637 885 q 607 829 624 859 l 388 543 l 361 555 l 502 876 "},"@":{"x_min":76,"x_max":1262,"ha":1338,"o":"m 885 638 l 949 638 l 858 266 l 845 205 q 866 157 845 172 q 922 143 888 143 q 1113 264 1039 143 q 1188 513 1188 385 q 1047 802 1188 695 q 721 910 906 910 q 318 754 485 910 q 152 362 152 599 q 296 3 152 137 q 665 -130 441 -130 q 885 -97 772 -130 q 1083 -3 997 -64 l 1107 -41 q 904 -148 1013 -110 q 678 -186 794 -186 q 252 -42 429 -186 q 76 351 76 101 q 268 792 76 614 q 722 970 460 970 q 1097 843 933 970 q 1262 507 1262 717 q 1162 214 1262 346 q 910 83 1063 83 q 818 103 860 83 q 776 170 776 124 l 776 204 q 694 115 747 148 q 583 82 642 82 q 430 139 482 82 q 378 301 378 197 q 462 552 378 440 q 677 665 546 665 q 781 638 738 665 q 846 556 824 612 l 885 638 m 831 477 q 780 571 817 534 q 687 608 742 608 q 518 510 579 608 q 457 297 457 412 q 493 184 457 230 q 593 139 529 139 q 717 188 665 139 q 790 312 770 237 l 831 477 "},"Ί":{"x_min":-38.5,"x_max":586.25,"ha":608,"o":"m 399 3 l 329 3 q 277 1 296 3 q 250 0 259 0 q 364 482 315 248 q 437 931 413 716 q 473 927 456 928 q 512 926 489 926 q 560 928 542 926 q 586 931 578 931 q 476 477 522 712 q 399 3 429 243 m -38 744 l 153 940 q 189 969 171 958 q 226 981 207 981 q 263 965 247 981 q 280 928 280 950 q 260 896 280 917 q 231 870 241 875 l 18 744 l -38 744 "},"ö":{"x_min":10,"x_max":684,"ha":747,"o":"m 364 669 q 594 596 505 669 q 684 383 684 524 q 580 105 684 225 q 327 -15 477 -15 q 97 58 185 -15 q 10 274 10 132 q 19 348 10 302 q 54 464 29 394 q 167 601 80 534 q 364 669 255 669 m 335 923 q 385 902 360 923 q 397 883 389 896 q 406 850 406 870 q 397 815 406 827 q 375 791 389 803 q 336 780 362 780 q 285 801 306 780 q 264 852 264 823 q 286 902 266 882 q 335 923 306 923 m 565 923 q 616 902 592 923 q 631 879 624 892 q 638 850 638 867 q 632 821 638 835 q 610 795 624 810 q 567 780 595 780 q 517 801 538 780 q 496 852 496 823 q 516 902 496 881 q 565 923 536 923 m 133 234 q 175 94 133 152 q 297 36 218 36 q 492 158 425 36 q 559 421 559 280 q 514 562 559 505 q 388 619 469 619 q 242 549 301 619 q 158 394 183 480 q 133 234 133 308 "},"i":{"x_min":8.59375,"x_max":295,"ha":329,"o":"m 127 655 q 198 647 164 647 q 267 655 234 647 q 183 311 214 474 q 152 0 152 148 q 115 4 136 1 q 82 7 94 7 q 39 4 57 7 q 8 0 20 1 q 93 348 60 180 q 127 655 127 516 m 230 962 q 275 942 256 962 q 295 894 295 923 q 276 846 295 866 q 230 826 258 826 q 183 845 202 826 q 164 892 164 864 q 183 941 164 920 q 230 962 202 962 "},"Β":{"x_min":12.609375,"x_max":704,"ha":745,"o":"m 199 930 l 298 930 q 382 930 322 930 q 446 930 442 930 q 627 885 551 930 q 704 742 704 840 q 627 575 704 633 q 430 497 550 518 q 599 439 533 488 q 666 291 666 389 q 561 79 666 158 q 322 1 457 1 l 128 1 l 12 1 q 117 440 71 201 q 199 930 163 679 m 581 727 q 536 843 581 800 q 419 887 491 887 q 370 884 397 887 q 320 878 343 881 q 280 708 302 811 q 244 520 258 604 q 483 560 386 520 q 581 727 581 600 m 254 57 q 452 116 366 57 q 538 282 538 175 q 477 419 538 372 q 322 466 416 466 l 234 466 q 190 251 208 344 q 160 57 173 157 q 219 57 200 57 q 254 57 238 57 "},"≤":{"x_min":171,"x_max":943,"ha":1116,"o":"m 284 492 l 943 266 l 943 195 l 171 462 l 171 520 l 943 786 l 943 717 l 284 492 m 943 26 l 171 26 l 171 93 l 943 93 l 943 26 "},"υ":{"x_min":41,"x_max":686,"ha":758,"o":"m 686 432 q 571 121 686 256 q 287 -14 457 -14 q 112 42 183 -14 q 41 203 41 99 q 78 459 41 305 q 122 654 115 613 q 189 649 153 649 q 226 651 205 649 q 260 654 247 653 q 192 406 227 538 q 158 188 158 274 q 192 80 158 123 q 290 37 226 37 q 486 158 419 37 q 554 423 554 280 q 539 534 554 477 q 500 648 525 592 l 536 648 q 577 650 558 648 q 634 661 597 653 q 686 432 686 552 "},"]":{"x_min":-44.921875,"x_max":348.4375,"ha":365,"o":"m 196 892 l 148 892 l 156 941 l 253 941 l 348 941 q 287 645 325 833 q 204 226 249 456 q 134 -136 159 -4 l 44 -136 l -44 -136 l -36 -86 l 17 -86 l 49 -86 q 103 176 70 15 q 180 568 136 337 q 242 892 224 798 l 196 892 "},"m":{"x_min":3.578125,"x_max":1078,"ha":1173,"o":"m 522 468 q 492 555 522 522 q 411 588 463 588 q 236 490 293 588 q 161 254 179 393 q 131 0 143 116 q 95 3 117 0 q 68 6 73 6 q 30 3 53 6 q 3 0 6 0 q 87 339 52 160 q 122 654 122 518 l 179 646 q 245 654 213 646 q 210 522 221 582 q 324 631 262 593 q 465 669 387 669 q 635 522 614 669 q 753 629 686 589 q 896 669 820 669 q 1024 623 971 669 q 1078 500 1078 577 q 1075 458 1078 485 q 1069 420 1072 432 l 1019 138 l 998 0 q 937 7 967 3 q 904 3 926 7 q 870 0 882 0 q 930 243 906 118 q 955 468 955 368 q 929 556 955 525 q 844 588 904 588 q 669 489 727 588 q 588 234 612 390 q 565 0 576 116 q 534 3 556 0 q 501 7 512 7 q 469 4 489 7 q 437 0 450 1 q 497 245 473 120 q 522 468 522 370 "},"χ":{"x_min":-101.578125,"x_max":681.0625,"ha":700,"o":"m 448 424 q 565 654 510 528 q 622 649 588 649 q 660 649 641 649 q 681 654 675 653 q 573 504 623 584 q 449 302 523 424 l 374 181 l 419 27 q 551 -371 482 -186 l 501 -371 q 452 -373 485 -371 q 403 -375 419 -375 l 280 83 l 173 -91 q 91 -234 125 -169 q 29 -372 56 -298 l -53 -372 l -101 -373 q 129 -37 20 -208 l 259 160 l 208 344 q 143 539 170 491 q 71 587 116 587 l 25 582 l 25 635 q 79 661 54 653 q 135 669 103 669 q 252 612 225 669 q 317 407 279 555 l 354 264 l 448 424 "},"8":{"x_min":26,"x_max":674,"ha":734,"o":"m 157 685 q 243 849 157 789 q 435 910 329 910 q 601 864 528 910 q 674 729 674 818 q 612 582 674 640 q 458 502 551 524 q 591 430 538 492 q 644 287 644 369 q 544 67 644 152 q 309 -18 445 -18 q 109 45 192 -18 q 26 223 26 108 q 105 412 26 337 q 299 509 184 487 q 196 572 236 525 q 157 685 157 618 m 266 674 q 301 566 266 609 q 400 523 336 523 q 515 581 472 523 q 558 717 558 639 q 523 819 558 779 q 427 859 488 859 q 326 816 369 859 q 272 713 283 774 q 266 674 268 700 m 150 210 q 192 83 150 133 q 309 33 234 33 q 466 117 409 33 q 524 310 524 202 q 480 427 524 383 q 367 472 436 472 q 230 414 290 472 q 160 302 171 356 q 150 210 150 248 "},"ί":{"x_min":8.59375,"x_max":475,"ha":328,"o":"m 127 655 q 198 647 164 647 q 267 655 234 647 q 183 311 214 474 q 152 0 152 148 q 115 1 132 0 q 76 3 98 3 l 8 3 q 69 230 45 130 q 110 442 94 330 q 127 655 127 554 m 158 744 l 348 940 q 386 969 367 958 q 423 981 405 981 q 459 965 443 981 q 475 928 475 949 q 456 895 475 915 q 426 870 438 875 l 215 744 l 158 744 "},"Ζ":{"x_min":-26,"x_max":799,"ha":769,"o":"m -26 23 q 305 447 155 251 q 611 863 455 644 l 445 863 q 302 856 371 863 q 137 838 232 849 q 148 878 145 861 q 156 928 152 894 q 308 928 201 928 q 424 928 416 928 l 529 928 l 799 928 l 799 914 q 596 650 681 763 q 403 393 511 538 q 164 79 295 249 l 323 79 q 490 79 415 79 q 730 101 566 79 q 713 56 721 84 q 703 4 706 27 q 476 4 627 4 q 248 4 325 4 q 116 4 179 4 q -26 0 52 4 l -26 23 "},"R":{"x_min":13.71875,"x_max":730,"ha":744,"o":"m 200 928 l 299 928 l 452 928 q 646 878 562 928 q 730 723 730 828 q 638 536 730 597 q 405 457 547 475 q 693 1 550 208 l 627 1 q 582 0 607 1 q 533 -4 558 -1 q 378 267 461 126 l 268 452 l 235 452 l 207 308 q 180 176 202 283 q 158 0 158 69 q 115 4 133 2 q 85 6 98 6 q 45 3 70 6 q 13 0 19 0 q 120 443 76 217 q 200 928 164 670 m 602 714 q 545 833 602 795 q 403 871 488 871 l 328 871 q 283 690 305 788 q 245 501 261 591 q 500 542 399 501 q 602 714 602 583 "},"×":{"x_min":198.71875,"x_max":920.109375,"ha":1116,"o":"m 872 774 l 920 728 l 605 408 l 920 86 l 872 38 l 558 359 l 243 38 l 198 86 l 514 408 l 198 728 l 243 774 l 558 452 l 872 774 "},"o":{"x_min":11,"x_max":685,"ha":746,"o":"m 365 668 q 595 596 506 668 q 685 380 685 523 q 580 106 685 226 q 326 -14 475 -14 q 98 58 186 -14 q 11 271 11 130 q 18 346 11 309 q 53 459 25 384 q 167 601 81 534 q 365 668 253 668 m 132 235 q 173 93 132 149 q 296 37 215 37 q 490 159 423 37 q 558 421 558 282 q 512 561 558 503 q 386 619 466 619 q 239 548 299 619 q 155 381 179 478 q 132 235 132 307 "},"5":{"x_min":4.9375,"x_max":659.328125,"ha":733,"o":"m 369 551 q 534 486 467 551 q 602 322 602 421 q 488 79 602 176 q 229 -18 374 -18 q 119 -3 174 -18 q 4 38 63 11 q 40 160 19 103 l 49 157 q 113 69 78 100 q 205 38 149 38 q 390 113 316 38 q 465 301 465 189 q 422 435 465 380 q 303 490 379 490 q 234 474 273 490 q 164 434 196 458 l 138 452 q 180 663 160 545 q 214 885 200 781 l 426 885 l 659 885 q 647 827 651 860 q 643 773 643 795 q 501 773 595 773 q 362 773 407 773 l 271 773 l 218 517 q 369 551 287 551 "},"7":{"x_min":77.96875,"x_max":737,"ha":734,"o":"m 603 769 l 303 769 l 136 769 q 155 805 150 788 q 161 845 161 823 l 161 886 l 419 886 l 737 886 l 737 849 q 688 781 702 802 q 652 726 674 760 l 452 412 q 327 203 382 303 q 223 0 271 103 q 186 4 207 0 q 150 8 166 8 q 114 4 133 8 q 77 0 95 0 q 252 221 171 106 q 427 486 332 336 q 603 769 521 637 "},"K":{"x_min":13.25,"x_max":819.03125,"ha":732,"o":"m 265 499 q 339 567 301 530 q 398 626 376 605 l 512 747 q 591 832 553 788 q 673 931 629 876 l 737 929 l 819 929 q 753 876 782 901 q 674 808 723 852 l 575 713 l 364 508 l 534 247 l 636 87 l 687 18 l 687 0 q 642 3 669 0 q 612 7 614 7 q 570 4 586 7 q 535 0 554 2 q 435 172 482 93 q 344 320 388 251 l 254 454 l 236 454 l 207 311 q 158 0 180 163 q 122 4 145 1 q 88 7 99 7 q 45 3 71 7 q 13 0 18 0 q 126 463 79 234 q 199 929 172 692 l 267 929 q 312 930 281 929 q 344 931 342 931 q 280 665 305 810 l 247 504 l 265 499 "},",":{"x_min":-66.296875,"x_max":210,"ha":368,"o":"m 75 91 q 108 148 94 131 q 155 165 122 165 q 195 155 181 165 q 210 120 210 145 q 205 94 210 105 q 178 44 201 84 l -37 -240 l -66 -225 l 75 91 "},"d":{"x_min":16,"x_max":786.25,"ha":750,"o":"m 250 -14 q 78 65 141 -14 q 16 259 16 145 q 113 544 16 419 q 365 669 211 669 q 483 628 428 669 q 561 527 538 588 l 592 678 q 622 840 603 732 q 652 1023 641 948 q 693 1016 676 1019 q 719 1014 710 1014 q 755 1018 735 1014 q 786 1023 775 1022 q 663 527 714 782 q 575 1 612 273 l 518 1 l 455 1 l 482 94 q 370 12 422 39 q 250 -14 318 -14 m 141 239 q 175 105 141 160 q 285 51 209 51 q 452 139 393 51 q 520 294 511 228 q 529 377 529 360 q 529 404 529 395 q 529 448 529 439 q 526 463 529 457 q 475 556 516 521 q 376 591 435 591 q 229 516 286 591 q 160 378 172 441 q 144 284 147 316 q 141 239 141 252 "},"¨":{"x_min":105,"x_max":640.296875,"ha":594,"o":"m 239 616 q 202 556 219 570 q 159 543 185 543 l 132 547 q 112 557 120 551 q 105 587 105 563 q 115 624 105 604 q 134 662 125 644 l 354 946 l 381 934 l 239 616 m 500 616 l 483 580 q 459 551 474 559 q 418 543 444 543 q 378 553 392 543 q 364 588 364 563 q 374 629 364 611 q 396 662 384 647 l 613 946 l 640 934 l 500 616 "},"E":{"x_min":14.078125,"x_max":640.40625,"ha":635,"o":"m 200 928 l 430 928 l 640 928 q 620 846 620 886 q 542 856 580 856 q 459 856 504 856 l 321 856 q 295 756 309 819 q 275 663 282 694 l 248 532 l 363 532 q 465 532 431 532 q 561 541 498 532 q 545 451 545 501 q 461 460 508 456 q 374 465 414 465 l 235 465 l 204 312 q 183 201 193 261 q 163 78 173 141 q 376 78 304 78 q 513 90 449 78 q 503 57 506 72 q 500 27 500 43 l 500 4 l 196 4 q 14 0 103 4 q 120 449 64 165 q 200 928 177 734 "},"Y":{"x_min":29.9375,"x_max":762.21875,"ha":653,"o":"m 250 380 q 172 583 194 526 q 108 740 149 641 q 29 931 68 839 q 71 926 62 926 q 104 926 80 926 q 147 928 117 926 q 181 931 178 931 q 227 772 208 830 q 347 449 246 714 l 491 674 q 565 799 525 730 q 635 931 605 869 l 692 926 q 737 928 721 926 q 762 931 752 931 l 657 794 l 566 663 l 374 387 l 344 236 q 311 0 322 118 q 271 3 294 0 q 236 7 249 7 q 196 4 212 7 q 161 0 181 2 q 213 199 190 90 q 250 380 235 308 "},"\"":{"x_min":64,"x_max":309,"ha":373,"o":"m 129 587 l 64 587 l 64 956 l 129 956 l 129 587 m 309 587 l 242 587 l 242 956 l 309 956 l 309 587 "},"ê":{"x_min":10,"x_max":602,"ha":651,"o":"m 141 235 q 189 100 141 153 q 317 47 238 47 q 426 76 370 47 q 528 152 481 106 l 543 138 q 526 93 535 117 q 514 49 518 69 q 408 0 462 16 q 297 -18 354 -18 q 88 61 167 -18 q 10 273 10 140 q 112 550 10 431 q 368 669 215 669 q 535 594 469 669 q 602 416 602 519 q 602 368 602 402 q 602 335 602 335 l 373 335 l 146 335 q 141 235 141 291 m 517 743 l 409 885 l 241 743 l 180 743 l 381 975 l 457 975 l 565 743 l 517 743 m 318 389 l 479 389 q 486 452 486 426 q 452 567 486 516 q 358 618 419 618 q 229 550 278 618 q 157 389 180 483 l 318 389 "},"δ":{"x_min":12,"x_max":660.03125,"ha":689,"o":"m 432 967 q 327 930 371 967 q 283 832 283 894 q 367 674 283 746 q 533 535 451 601 q 621 327 621 445 q 533 85 621 184 q 307 -14 446 -14 q 95 68 179 -14 q 12 281 12 151 q 97 513 12 417 q 317 624 183 608 q 209 716 254 664 q 159 829 164 768 q 233 970 159 919 q 399 1021 307 1021 q 581 999 503 1021 q 660 901 660 978 q 653 875 660 892 q 645 851 647 858 q 545 937 593 907 q 432 967 496 967 m 349 576 q 196 468 251 576 q 141 252 141 360 q 177 99 141 166 q 289 33 213 33 q 440 135 390 33 q 490 352 490 238 q 469 477 490 417 q 413 557 449 538 q 349 576 378 576 "},"έ":{"x_min":31,"x_max":645,"ha":629,"o":"m 522 512 q 450 586 492 558 q 360 615 408 615 q 271 582 308 615 q 235 497 235 549 q 280 405 235 430 q 406 369 326 380 q 400 329 400 351 l 400 308 q 354 315 390 309 q 311 320 318 320 q 205 283 248 320 q 162 182 162 245 q 210 78 162 115 q 328 42 259 42 q 433 66 386 42 q 533 139 480 91 q 521 42 521 93 q 312 -15 426 -15 q 117 32 203 -15 q 31 182 31 80 q 79 302 31 255 q 202 367 127 348 q 137 427 163 391 q 112 508 112 463 q 178 628 112 587 q 330 669 245 669 q 443 650 386 669 q 548 598 500 631 q 533 560 539 578 q 522 512 528 541 m 326 744 l 518 941 q 554 970 536 959 q 591 982 572 982 q 628 966 612 982 q 645 929 645 951 q 625 897 645 917 q 594 870 606 876 l 383 744 l 326 744 "},"ω":{"x_min":12,"x_max":1068,"ha":1129,"o":"m 1068 384 q 965 102 1068 219 q 702 -15 862 -15 q 580 10 631 -15 q 491 94 529 36 q 397 13 450 41 q 280 -15 344 -15 q 87 73 163 -15 q 12 283 12 161 q 63 486 12 393 q 208 658 115 580 q 261 646 234 651 q 326 641 288 641 q 188 460 241 562 q 135 248 135 359 q 175 101 135 167 q 291 36 215 36 q 471 280 420 36 q 501 474 494 428 l 528 655 q 569 650 547 650 q 619 650 590 650 l 667 652 q 599 394 620 487 q 577 204 577 301 q 609 80 577 126 q 714 34 642 34 q 880 148 825 34 q 936 387 936 261 q 914 525 936 462 q 847 645 893 589 q 907 649 880 645 q 978 661 934 652 q 1045 534 1023 606 q 1068 384 1068 462 "},"´":{"x_min":107.96875,"x_max":387,"ha":368,"o":"m 250 875 q 280 928 261 909 q 331 948 299 948 q 372 938 357 948 q 387 902 387 928 q 378 866 387 884 q 352 828 369 849 l 136 542 l 107 555 l 250 875 "},"±":{"x_min":166,"x_max":950,"ha":1116,"o":"m 592 546 l 950 546 l 950 481 l 592 481 l 592 248 l 525 248 l 525 481 l 166 481 l 166 546 l 525 546 l 525 780 l 592 780 l 592 546 m 950 33 l 166 33 l 166 100 l 950 100 l 950 33 "},"|":{"x_min":298,"x_max":370,"ha":669,"o":"m 370 448 l 298 448 l 298 955 l 370 955 l 370 448 m 370 -235 l 298 -235 l 298 270 l 370 270 l 370 -235 "},"ϋ":{"x_min":41,"x_max":686,"ha":758,"o":"m 686 432 q 571 121 686 256 q 287 -14 457 -14 q 112 42 183 -14 q 41 203 41 99 q 78 459 41 305 q 122 654 115 613 q 189 649 153 649 q 226 651 205 649 q 260 654 248 653 q 192 406 227 538 q 158 188 158 274 q 192 80 158 123 q 290 37 226 37 q 486 158 419 37 q 554 423 554 280 q 539 534 554 477 q 501 648 525 592 l 536 648 q 578 650 558 648 q 634 661 598 653 q 686 432 686 552 m 299 923 q 348 901 328 923 q 368 849 368 880 q 348 799 368 820 q 299 779 329 779 q 249 799 269 779 q 229 852 229 820 q 248 902 229 882 q 299 923 268 923 m 528 923 q 578 901 558 923 q 598 849 598 880 q 579 799 598 819 q 529 779 561 779 q 480 800 501 779 q 459 852 459 821 q 478 902 459 882 q 528 923 498 923 "},"§":{"x_min":7.03125,"x_max":593.796875,"ha":662,"o":"m 41 42 l 57 40 q 139 -60 91 -23 q 252 -98 186 -98 q 367 -57 320 -98 q 414 50 414 -17 q 329 190 414 128 q 171 293 251 242 q 86 452 86 361 q 117 553 86 508 q 204 635 149 597 q 185 680 192 658 q 179 727 179 702 q 250 881 179 815 q 412 948 321 948 q 512 930 463 948 q 593 880 561 913 q 578 855 587 869 q 551 802 570 840 l 534 802 q 473 867 507 843 q 396 892 440 892 q 302 855 342 892 q 262 762 262 818 q 342 639 262 693 q 502 536 423 585 q 587 379 587 470 q 557 283 587 329 q 482 202 527 238 q 511 96 511 157 q 432 -84 511 -8 q 252 -160 354 -160 q 7 -71 115 -160 q 32 -11 24 -36 q 41 42 41 13 m 507 339 q 411 467 507 395 q 234 602 315 540 q 185 559 204 585 q 166 502 166 533 q 266 363 166 435 q 452 233 366 292 q 490 283 474 254 q 507 339 507 311 "},"b":{"x_min":-10.78125,"x_max":675,"ha":750,"o":"m 168 878 l 194 1024 q 228 1018 209 1021 q 260 1014 246 1014 q 295 1018 276 1014 q 325 1024 314 1022 q 257 749 292 913 q 216 558 221 586 q 318 640 261 612 q 443 669 375 669 q 613 589 552 669 q 675 392 675 509 q 577 107 675 229 q 323 -15 480 -15 q 209 7 261 -15 q 109 76 158 30 q 34 0 69 47 l -10 0 q 55 281 23 129 q 111 562 87 433 q 168 878 136 692 m 550 409 q 514 544 550 488 q 404 600 479 600 q 218 482 279 600 q 158 223 158 365 q 198 95 158 148 q 311 43 238 43 q 458 119 401 43 q 529 267 515 195 q 546 360 543 338 q 550 409 550 381 "},"q":{"x_min":23,"x_max":702.140625,"ha":750,"o":"m 262 -14 q 87 65 152 -14 q 23 262 23 145 q 123 546 23 423 q 378 669 223 669 q 491 632 443 669 q 566 531 539 596 q 578 612 576 596 q 581 653 581 628 q 608 649 591 650 q 639 648 624 648 q 672 650 654 648 q 702 653 691 652 q 642 392 666 514 q 528 -226 617 270 l 503 -373 q 474 -367 487 -369 q 438 -365 461 -365 q 401 -367 413 -365 q 373 -373 389 -369 q 430 -152 405 -261 l 468 30 l 483 96 q 379 15 432 44 q 262 -14 326 -14 m 147 241 q 182 109 147 165 q 289 53 217 53 q 473 166 411 53 q 535 413 535 279 q 494 542 535 491 q 379 594 454 594 q 233 519 289 594 q 161 367 176 444 q 147 241 147 291 "},"Ω":{"x_min":-37.671875,"x_max":1043.078125,"ha":1081,"o":"m 1043 90 q 1024 4 1030 56 q 919 4 988 4 q 814 4 849 4 q 709 4 780 4 q 603 4 638 4 l 619 56 q 825 250 751 119 q 900 538 900 381 q 823 791 900 695 q 593 887 746 887 q 294 737 408 887 q 180 391 180 587 q 230 185 180 276 q 381 56 280 95 l 367 4 l 165 4 q 49 4 131 4 q -37 4 -32 4 q -25 42 -29 23 q -17 95 -21 60 q 82 87 37 87 q 204 87 128 87 q 82 230 120 164 q 44 395 44 296 q 208 790 44 628 q 603 952 372 952 q 915 844 791 952 q 1039 548 1039 736 q 984 301 1039 406 q 819 90 929 195 q 926 90 846 90 q 1043 90 1006 90 "},"ύ":{"x_min":41,"x_max":688,"ha":759,"o":"m 686 432 q 571 121 686 256 q 287 -14 457 -14 q 112 42 183 -14 q 41 203 41 99 q 78 459 41 305 q 122 654 115 613 q 189 649 153 649 q 226 651 205 649 q 260 654 247 653 q 192 406 227 538 q 158 188 158 274 q 192 80 158 123 q 290 37 226 37 q 486 158 419 37 q 554 423 554 280 q 539 534 554 477 q 500 648 525 592 l 536 648 q 577 650 558 648 q 634 661 597 653 q 686 432 686 552 m 368 744 l 561 940 q 597 969 578 958 q 634 981 615 981 q 671 965 655 981 q 688 928 688 950 q 668 896 688 917 q 637 870 649 875 l 426 744 l 368 744 "},"Ö":{"x_min":42,"x_max":1040,"ha":1081,"o":"m 604 952 q 914 846 788 952 q 1040 555 1040 741 q 875 149 1040 316 q 479 -18 711 -18 q 164 89 287 -18 q 42 388 42 197 q 68 573 42 444 q 248 827 95 703 q 604 952 402 952 m 544 1203 q 592 1180 571 1203 q 614 1128 614 1157 q 592 1079 614 1098 q 543 1060 570 1060 q 494 1080 514 1060 q 474 1130 474 1101 q 494 1182 474 1161 q 544 1203 514 1203 m 776 1203 q 824 1180 804 1203 q 844 1128 844 1157 q 822 1079 844 1098 q 773 1060 801 1060 q 724 1080 744 1060 q 704 1130 704 1101 q 725 1181 704 1159 q 776 1203 746 1203 m 595 887 q 294 735 406 887 q 182 387 182 584 q 260 139 182 235 q 485 43 339 43 q 786 188 672 43 q 901 528 901 334 q 891 651 901 595 q 849 764 881 706 q 749 854 817 821 q 595 887 680 887 "},"z":{"x_min":-34,"x_max":618,"ha":621,"o":"m 304 422 l 438 587 q 262 587 329 587 q 109 577 196 587 l 112 627 l 112 655 q 190 651 171 651 q 232 651 209 651 q 457 651 321 651 q 618 651 594 651 l 618 630 q 451 441 505 503 q 313 275 397 378 q 151 73 228 173 q 342 73 253 73 q 531 88 431 73 q 517 44 525 67 q 510 4 510 20 q 372 4 463 4 q 235 4 281 4 q -34 -4 107 4 l -34 30 q 304 422 136 211 "},"™":{"x_min":173,"x_max":900,"ha":1116,"o":"m 455 930 l 341 930 l 341 614 l 289 614 l 289 930 l 173 930 l 173 970 l 455 970 l 455 930 m 721 688 l 824 970 l 900 970 l 900 615 l 854 615 l 854 927 l 738 615 l 704 615 l 583 927 l 583 615 l 538 615 l 538 970 l 612 970 l 721 688 "},"ή":{"x_min":4.515625,"x_max":659,"ha":750,"o":"m 69 6 q 31 3 54 6 q 4 0 7 0 q 88 338 54 165 q 122 654 122 511 l 180 646 q 246 654 214 646 q 212 522 225 588 q 326 629 261 589 q 466 669 391 669 q 600 623 546 669 q 654 496 654 577 q 639 375 654 436 l 547 -112 q 523 -254 536 -173 q 505 -373 510 -334 q 471 -367 486 -369 q 442 -365 456 -365 q 410 -368 429 -365 q 376 -373 392 -371 q 452 -63 419 -201 q 509 216 485 74 q 534 460 534 359 q 504 551 534 515 q 419 588 474 588 q 312 556 377 588 q 208 431 248 524 q 155 221 167 339 q 133 0 143 103 q 99 3 122 0 q 69 6 75 6 m 340 743 l 532 940 q 569 969 550 958 q 607 981 588 981 q 643 964 627 981 q 659 928 659 948 q 640 896 659 916 q 610 869 621 875 l 399 743 l 340 743 "},"Θ":{"x_min":42,"x_max":1038,"ha":1080,"o":"m 602 952 q 914 844 790 952 q 1038 548 1038 736 q 876 143 1038 305 q 478 -18 715 -18 q 165 88 288 -18 q 42 387 42 195 q 68 571 42 439 q 248 827 95 703 q 602 952 402 952 m 593 887 q 294 734 408 887 q 181 385 181 582 q 261 139 181 235 q 485 43 341 43 q 785 189 670 43 q 901 528 901 335 q 891 650 901 595 q 849 762 881 705 q 747 853 817 820 q 593 887 677 887 m 538 415 l 487 415 l 284 415 q 294 458 291 440 q 298 497 298 477 q 434 497 347 497 q 545 497 521 497 l 596 497 l 801 497 q 790 452 793 471 q 786 415 786 433 q 662 415 745 415 q 538 415 579 415 "},"®":{"x_min":79,"x_max":1036,"ha":1116,"o":"m 799 903 q 972 726 909 839 q 1036 481 1036 613 q 893 137 1036 281 q 556 -6 751 -6 q 220 138 362 -6 q 79 481 79 282 q 220 825 79 681 q 558 970 362 970 q 799 903 684 970 m 558 917 q 257 787 384 917 q 131 481 131 658 q 257 175 131 306 q 555 45 384 45 q 856 174 728 45 q 984 478 984 303 q 928 696 984 594 q 771 857 872 798 q 558 917 671 917 m 797 620 q 759 521 797 563 q 668 467 722 479 l 791 209 l 698 209 l 580 456 l 453 456 l 453 209 l 370 209 l 370 770 l 569 770 q 731 738 665 770 q 797 620 797 706 m 453 714 l 453 512 l 555 512 q 667 531 621 512 q 713 608 713 550 q 667 692 713 671 q 553 714 621 714 l 453 714 "},"É":{"x_min":13.71875,"x_max":655,"ha":635,"o":"m 198 930 l 431 930 l 640 930 q 618 846 625 895 q 539 858 574 858 q 459 858 503 858 l 321 858 q 298 778 306 811 q 276 663 291 745 l 247 532 l 362 532 q 472 532 442 532 q 559 541 502 532 q 545 451 545 499 q 454 462 490 459 q 375 465 419 465 l 232 465 l 204 310 q 184 203 193 256 q 164 79 175 150 q 376 79 302 79 q 514 90 450 79 q 503 55 506 66 q 501 26 501 44 l 501 4 l 196 4 q 13 0 103 4 q 121 454 65 169 q 198 930 177 740 m 336 1023 l 528 1221 q 567 1253 551 1243 q 604 1264 584 1264 q 640 1246 625 1264 q 655 1207 655 1228 q 642 1178 655 1189 q 605 1151 630 1167 l 394 1023 l 336 1023 "},"~":{"x_min":279,"x_max":1059,"ha":1339,"o":"m 835 651 q 652 749 761 651 q 501 848 543 848 q 388 791 423 848 q 354 651 354 735 l 279 651 q 334 844 279 766 q 501 923 389 923 q 683 823 593 923 q 837 723 773 723 q 950 778 917 723 q 983 923 983 834 l 1059 923 q 1003 728 1059 805 q 835 651 948 651 "},"Ε":{"x_min":14.078125,"x_max":640.40625,"ha":635,"o":"m 200 928 l 430 928 l 640 928 q 620 846 620 886 q 542 856 580 856 q 459 856 504 856 l 321 856 q 295 756 309 819 q 275 663 282 694 l 248 532 l 363 532 q 465 532 431 532 q 561 541 498 532 q 545 451 545 501 q 461 460 508 456 q 374 465 414 465 l 235 465 l 204 312 q 183 201 193 261 q 163 78 173 141 q 376 78 304 78 q 513 90 449 78 q 503 57 506 72 q 500 27 500 43 l 500 4 l 196 4 q 14 0 103 4 q 120 449 64 165 q 200 928 177 734 "},"³":{"x_min":1.046875,"x_max":425,"ha":486,"o":"m 24 445 l 35 442 q 83 391 52 407 q 154 376 114 376 q 273 416 222 376 q 325 524 325 456 q 299 593 325 565 q 231 621 273 621 l 171 615 q 179 657 176 633 l 213 657 q 299 689 258 657 q 347 767 341 721 q 323 842 347 814 q 254 870 300 870 q 141 791 173 870 l 131 791 q 108 847 127 818 q 269 902 178 902 q 377 871 329 902 q 425 779 425 840 q 380 691 425 722 q 270 643 336 659 q 367 608 326 637 q 408 525 408 579 q 322 387 408 433 q 139 341 237 341 q 79 345 101 341 q 1 367 58 350 l 24 445 "},"[":{"x_min":-6.8125,"x_max":386.5625,"ha":365,"o":"m 147 -87 l 194 -87 l 182 -136 l 88 -136 l -6 -136 q 206 939 104 385 l 296 939 l 386 939 l 377 888 l 321 888 l 289 888 q 232 608 257 731 q 165 271 206 485 q 96 -87 123 57 l 147 -87 "},"L":{"x_min":13.75,"x_max":533.703125,"ha":588,"o":"m 200 931 q 232 927 216 928 q 271 925 247 925 q 308 927 287 925 q 340 931 329 929 q 236 503 290 763 q 166 79 182 243 q 351 79 265 79 q 533 94 437 79 q 516 27 516 60 l 518 4 l 201 4 q 13 0 107 4 q 128 469 79 226 q 200 931 178 711 "},"σ":{"x_min":11,"x_max":773.609375,"ha":785,"o":"m 760 566 q 693 573 724 573 q 619 573 661 573 q 685 384 685 498 q 580 106 685 226 q 325 -14 476 -14 q 97 58 183 -14 q 11 273 11 130 q 117 548 11 428 q 376 668 224 668 q 473 656 397 668 q 576 644 548 644 q 663 644 634 644 q 773 654 693 644 q 763 620 766 639 q 760 566 760 600 m 134 237 q 176 95 134 153 q 298 37 219 37 q 493 159 426 37 q 561 421 561 281 q 515 562 561 505 q 388 619 469 619 l 351 614 q 189 475 245 591 q 134 237 134 359 "},"ζ":{"x_min":37,"x_max":677,"ha":644,"o":"m 677 946 q 426 774 541 872 q 234 547 310 675 q 158 278 158 420 q 283 149 169 174 q 489 125 386 136 q 599 0 599 102 q 574 -93 599 -47 q 465 -229 549 -139 l 416 -193 q 474 -120 457 -146 q 491 -57 491 -94 q 346 14 491 -5 q 119 73 202 35 q 37 250 37 110 q 93 472 37 363 q 234 676 149 582 q 419 857 318 771 l 525 942 l 394 942 q 287 942 336 942 q 185 929 238 942 q 202 1020 202 972 q 339 1020 254 1020 q 436 1020 423 1020 q 573 1020 486 1020 q 677 1020 660 1020 l 677 946 "},"θ":{"x_min":29,"x_max":692,"ha":734,"o":"m 692 571 q 593 169 692 356 q 302 -18 494 -18 q 94 73 159 -18 q 29 317 29 165 q 129 718 29 528 q 419 909 229 909 l 456 904 q 636 798 580 889 q 692 571 692 707 m 143 257 q 179 99 143 167 q 298 31 216 31 q 466 140 416 31 q 551 425 516 249 l 392 425 l 159 425 q 147 333 151 369 q 143 257 143 296 m 575 630 q 538 788 575 719 q 419 858 501 858 q 255 753 305 858 q 170 481 205 649 l 314 481 q 457 481 358 481 q 562 481 555 481 q 570 556 566 513 q 575 630 575 599 "},"Ο":{"x_min":42,"x_max":1038,"ha":1080,"o":"m 602 952 q 912 846 786 952 q 1038 555 1038 741 q 874 149 1038 317 q 478 -18 711 -18 q 165 88 288 -18 q 42 387 42 195 q 68 571 42 439 q 248 827 95 703 q 602 952 402 952 m 593 887 q 294 734 408 887 q 181 385 181 582 q 261 139 181 235 q 485 43 341 43 q 785 189 670 43 q 901 528 901 335 q 891 650 901 595 q 849 762 881 705 q 747 853 817 820 q 593 887 677 887 "},"Γ":{"x_min":13.609375,"x_max":677.828125,"ha":581,"o":"m 89 2 q 61 2 72 2 q 13 0 50 2 q 123 454 77 221 q 200 927 170 686 q 324 927 246 927 q 420 927 402 927 q 571 927 479 927 q 677 927 664 927 q 656 840 662 889 q 504 856 578 856 l 321 856 q 227 440 280 731 q 159 2 174 149 l 89 2 "}," ":{"x_min":0,"x_max":0,"ha":368},"%":{"x_min":46,"x_max":989,"ha":1053,"o":"m 477 731 q 405 551 477 627 q 230 475 333 475 q 97 526 149 475 q 46 662 46 577 q 119 837 46 763 q 292 911 192 911 q 413 869 366 911 q 477 752 459 828 l 477 731 m 989 230 q 917 54 989 126 q 742 -18 845 -18 q 612 31 663 -18 q 562 161 562 80 q 634 336 562 262 q 808 411 707 411 q 929 368 880 411 q 989 254 979 326 l 989 230 m 198 -125 l 118 -125 l 826 1014 l 905 1014 l 198 -125 m 660 119 q 682 46 660 75 q 746 17 704 17 q 852 96 817 17 q 888 255 888 175 q 870 338 888 305 q 801 372 852 372 q 701 304 736 372 q 660 157 666 236 l 660 119 m 147 627 q 168 549 147 584 q 229 514 190 514 q 338 591 303 514 q 374 753 374 669 q 354 836 374 803 q 287 869 334 869 q 187 801 220 869 q 147 655 153 734 l 147 627 "},"P":{"x_min":13.578125,"x_max":708,"ha":697,"o":"m 200 930 l 279 930 q 370 930 313 930 q 440 930 428 930 q 628 872 549 930 q 708 707 708 814 q 641 528 708 605 q 496 437 574 452 q 353 422 417 422 q 228 422 288 422 q 188 197 209 316 q 157 0 167 79 q 115 4 133 2 q 85 7 97 7 q 44 3 70 7 q 13 0 19 0 q 127 464 80 230 q 200 930 175 698 m 573 698 q 519 826 573 781 q 382 872 466 872 l 326 872 q 239 475 272 671 q 479 521 386 475 q 573 698 573 567 "},"Ώ":{"x_min":-38,"x_max":1206.09375,"ha":1244,"o":"m 1206 90 q 1187 4 1193 56 q 1082 4 1151 4 q 977 4 1012 4 q 872 4 943 4 q 766 4 801 4 l 782 56 q 988 250 914 119 q 1063 538 1063 381 q 986 791 1063 695 q 756 887 909 887 q 457 737 571 887 q 343 391 343 587 q 393 185 343 276 q 544 56 443 95 l 530 4 l 328 4 q 212 4 294 4 q 125 4 130 4 q 137 42 133 23 q 145 95 141 60 q 245 87 200 87 q 367 87 291 87 q 245 230 283 164 q 207 395 207 296 q 371 790 207 628 q 766 952 535 952 q 1078 844 954 952 q 1202 548 1202 736 q 1147 301 1202 406 q 982 90 1092 195 q 1089 90 1009 90 q 1206 90 1169 90 m -38 744 l 154 940 q 190 969 171 958 q 227 980 208 980 q 264 965 248 980 q 281 928 281 950 q 261 896 281 917 q 231 870 242 875 l 19 744 l -38 744 "},"Έ":{"x_min":-38.5,"x_max":870.40625,"ha":865,"o":"m 431 928 l 661 928 l 870 928 q 850 846 850 886 q 772 856 810 856 q 689 856 734 856 l 552 856 q 526 756 540 819 q 506 663 513 694 l 478 532 l 594 532 q 696 532 662 532 q 791 541 729 532 q 775 451 775 501 q 692 460 739 456 q 605 465 645 465 l 466 465 l 435 312 q 414 201 424 261 q 394 78 404 141 q 607 78 534 78 q 744 90 680 78 q 734 57 737 72 q 731 27 731 43 l 731 4 l 427 4 q 244 0 334 4 q 351 449 294 165 q 431 928 408 734 m -38 744 l 153 940 q 189 969 171 958 q 226 981 207 981 q 263 965 247 981 q 280 928 280 950 q 260 896 280 917 q 231 869 241 875 l 18 744 l -38 744 "},"_":{"x_min":0,"x_max":670,"ha":670,"o":"m 670 -323 l 0 -323 l 0 -255 l 670 -255 l 670 -323 "},"Ϊ":{"x_min":19.03125,"x_max":504,"ha":379,"o":"m 170 2 l 99 2 q 47 1 66 2 q 19 0 28 0 q 96 313 55 138 q 163 631 137 489 q 205 928 189 773 l 282 928 l 353 928 q 170 2 226 471 m 204 1203 q 231 1198 219 1203 q 250 1183 242 1193 q 263 1166 257 1173 q 274 1129 274 1144 q 267 1100 274 1112 q 246 1074 260 1089 q 204 1060 233 1060 q 153 1080 175 1060 q 132 1130 132 1101 q 153 1182 132 1162 q 204 1203 174 1203 m 434 1203 q 461 1198 449 1203 q 480 1183 472 1193 q 494 1166 488 1173 q 504 1129 504 1147 q 497 1100 504 1111 q 477 1074 491 1089 q 434 1060 463 1060 q 383 1080 405 1060 q 362 1130 362 1101 q 383 1182 362 1162 q 434 1203 404 1203 "},"+":{"x_min":166,"x_max":950,"ha":1116,"o":"m 590 439 l 950 439 l 950 375 l 590 375 l 590 0 l 525 0 l 525 375 l 166 375 l 166 439 l 525 439 l 525 813 l 590 813 l 590 439 "},"½":{"x_min":132.46875,"x_max":1090,"ha":1150,"o":"m 297 834 q 208 798 235 811 q 142 762 180 786 q 137 788 142 775 q 132 808 133 801 q 262 854 210 834 q 380 902 314 873 l 392 893 q 334 665 358 772 q 278 390 310 558 l 233 394 l 191 390 q 250 612 223 500 q 297 834 276 723 m 993 1013 l 250 -125 l 171 -125 l 911 1013 l 993 1013 m 1051 57 q 1042 17 1042 37 l 1042 1 l 870 1 l 681 1 l 686 27 q 938 230 873 170 q 1004 385 1004 291 q 979 450 1004 424 q 914 477 954 477 q 848 456 877 477 q 807 399 820 435 l 794 399 q 765 443 783 426 q 929 510 833 510 q 1040 474 991 510 q 1090 377 1090 439 q 967 187 1090 274 q 772 57 844 101 q 924 57 826 57 q 1051 57 1023 57 "},"Ρ":{"x_min":13.578125,"x_max":708,"ha":697,"o":"m 200 930 l 279 930 q 370 930 313 930 q 440 930 428 930 q 628 872 549 930 q 708 707 708 814 q 641 528 708 605 q 496 437 574 452 q 353 422 417 422 q 228 422 288 422 q 188 197 209 316 q 157 0 167 79 q 115 4 133 2 q 85 7 97 7 q 44 3 70 7 q 13 0 19 0 q 127 464 80 230 q 200 930 175 698 m 573 698 q 519 826 573 781 q 382 872 466 872 l 326 872 q 239 475 272 671 q 479 521 386 475 q 573 698 573 567 "},"'":{"x_min":108.703125,"x_max":385,"ha":368,"o":"m 250 876 q 279 928 261 909 q 330 947 297 947 q 370 937 356 947 q 385 902 385 927 q 376 865 385 884 q 353 829 367 847 l 135 543 l 108 555 l 250 876 "},"T":{"x_min":67.015625,"x_max":754.34375,"ha":656,"o":"m 351 854 q 194 854 256 854 q 67 844 133 854 q 76 886 71 854 q 82 926 82 919 q 230 926 131 926 q 365 926 329 926 q 567 926 431 926 q 754 926 703 926 q 743 902 748 917 q 738 874 738 887 l 736 860 l 738 844 q 618 854 690 854 q 484 854 547 854 q 382 408 426 625 q 320 0 339 191 q 284 3 301 0 q 245 5 267 5 q 205 3 226 5 q 171 0 184 1 q 268 404 223 185 q 351 854 313 623 "},"Φ":{"x_min":49,"x_max":1040,"ha":1081,"o":"m 519 -23 q 451 -14 487 -14 q 372 -23 413 -14 l 400 71 q 153 170 258 83 q 49 393 49 257 q 193 741 49 615 q 557 868 338 868 l 570 957 q 607 951 586 954 q 645 948 628 948 q 681 951 660 948 q 717 957 702 954 l 691 862 q 937 761 835 845 q 1040 539 1040 676 q 896 191 1040 315 q 533 67 753 67 l 519 -23 m 901 521 q 841 718 901 636 q 675 800 781 800 q 599 454 630 605 q 541 134 568 303 q 797 249 694 134 q 901 521 901 364 m 189 407 q 248 213 189 293 q 416 134 308 134 q 485 464 454 304 q 547 800 517 625 q 288 686 387 800 q 189 407 189 572 "},"j":{"x_min":-137.78125,"x_max":291,"ha":330,"o":"m 228 962 q 272 943 254 962 q 291 896 291 924 q 271 846 291 867 q 224 826 252 826 q 178 845 197 826 q 159 892 159 864 q 179 941 159 920 q 228 962 199 962 m -137 -335 q -30 -272 -62 -328 q 17 -123 1 -216 l 59 107 q 105 391 81 243 q 129 655 129 540 q 198 647 164 647 q 261 655 232 647 q 212 395 233 526 q 167 109 190 265 q 121 -136 144 -47 q 39 -301 99 -226 q -129 -376 -20 -376 l -137 -335 "},"Σ":{"x_min":-60.28125,"x_max":720.6875,"ha":699,"o":"m 703 835 q 551 849 623 849 q 410 849 480 849 l 263 849 q 329 734 299 787 q 409 599 360 681 l 486 471 q 128 123 289 299 l 348 123 l 647 123 q 629 63 636 95 q 623 4 623 31 q 447 4 565 4 q 271 4 329 4 q 105 4 214 4 q -60 4 -3 4 l -49 48 q 350 451 154 243 q 256 624 288 568 q 176 751 225 679 l 88 889 l 96 927 q 290 927 172 927 q 428 927 409 927 q 601 927 496 927 q 720 927 705 927 q 703 835 703 881 "},"1":{"x_min":149.390625,"x_max":560.453125,"ha":734,"o":"m 410 792 q 263 722 301 742 q 163 664 224 703 q 159 706 163 685 q 149 747 156 726 q 346 824 244 781 q 541 914 448 868 l 560 894 q 379 0 451 459 q 345 4 368 0 q 308 8 322 8 q 276 5 295 8 q 241 0 258 2 q 333 400 289 199 q 410 792 376 602 "},"ä":{"x_min":-11,"x_max":560.171875,"ha":628,"o":"m 158 -14 q 38 29 87 -14 q -11 147 -11 72 q 95 317 -11 270 q 304 374 196 344 q 425 492 412 404 q 395 583 425 549 q 309 618 366 618 q 206 590 250 618 q 132 511 162 563 l 109 517 q 118 580 118 548 l 118 616 q 231 661 193 651 q 309 672 270 672 q 462 633 397 672 q 528 510 528 594 q 521 434 528 479 q 514 374 515 390 l 468 142 q 460 92 464 117 q 472 63 460 78 q 498 48 484 48 q 542 59 518 48 l 560 23 q 443 -10 508 -10 q 379 15 400 -10 q 351 89 358 41 q 261 11 305 36 q 158 -14 218 -14 m 253 923 q 303 902 283 923 q 323 848 323 882 q 303 802 323 824 q 253 780 284 780 q 204 800 224 780 q 184 852 184 821 q 204 902 184 881 q 253 923 224 923 m 484 923 q 532 902 512 923 q 552 848 552 882 q 532 802 552 824 q 484 780 513 780 q 433 801 454 780 q 412 852 412 823 q 433 902 412 882 q 484 923 454 923 m 101 159 q 128 86 101 114 q 200 58 156 58 q 305 98 254 58 q 367 194 356 139 l 394 345 q 173 283 245 313 q 101 159 101 253 "},"<":{"x_min":173,"x_max":942,"ha":1116,"o":"m 275 408 l 942 129 l 942 56 l 173 380 l 173 434 l 942 756 l 942 682 l 275 408 "},"£":{"x_min":-15.390625,"x_max":740.453125,"ha":734,"o":"m -4 97 l 13 97 q 176 199 137 97 q 216 453 216 301 q 152 453 183 453 q 83 448 120 453 l 94 507 q 156 507 115 507 q 217 507 196 507 q 217 532 217 519 q 224 587 217 545 q 314 813 224 715 q 531 911 405 911 q 651 882 594 911 q 740 801 709 854 q 661 718 692 759 l 637 725 q 611 822 637 784 q 531 860 586 860 q 385 746 428 860 q 342 506 342 633 l 459 506 l 591 506 q 580 479 583 496 q 578 440 578 462 q 337 450 464 450 q 285 247 324 319 q 145 99 247 175 l 302 99 q 496 99 370 99 q 649 99 621 99 l 639 -1 q 433 -1 567 -1 q 284 -1 299 -1 q 111 -1 231 -1 q -15 -1 -8 -1 l -4 97 "},"¹":{"x_min":133.828125,"x_max":406.046875,"ha":486,"o":"m 305 831 q 222 795 264 813 q 142 754 181 777 q 133 804 142 779 q 298 863 287 859 q 393 904 309 867 l 406 894 q 342 632 372 766 q 286 354 312 497 q 241 360 265 360 q 210 357 220 360 q 195 354 199 354 q 305 831 263 594 "},"t":{"x_min":33.109375,"x_max":428.25,"ha":426,"o":"m 33 586 q 41 618 38 599 q 44 655 44 636 q 91 648 64 651 q 163 646 119 646 q 179 726 170 679 q 193 813 188 773 q 251 829 227 820 q 313 856 274 837 l 324 843 l 287 701 l 275 646 q 428 655 356 646 q 421 624 426 651 q 416 586 416 597 q 343 593 376 593 q 263 593 309 593 l 192 268 q 176 199 181 228 q 172 139 172 171 q 195 78 172 100 q 256 56 218 56 q 292 60 279 56 q 341 80 305 64 l 335 29 q 267 0 301 11 q 199 -12 233 -12 q 96 21 139 -12 q 54 114 54 54 q 62 187 54 144 q 75 250 71 230 l 153 593 q 90 593 117 593 q 33 586 63 593 "},"¬":{"x_min":47.640625,"x_max":458.6875,"ha":528,"o":"m 310 792 q 165 724 210 746 q 63 665 119 701 q 58 706 61 686 q 47 747 55 725 q 233 817 149 782 q 441 914 317 853 l 458 894 q 279 0 351 453 q 243 4 266 0 q 208 8 220 8 q 176 5 194 8 q 140 0 157 2 q 310 792 238 398 "},"λ":{"x_min":-54.828125,"x_max":574,"ha":651,"o":"m 228 1024 q 371 938 338 1024 q 421 768 403 853 l 466 509 q 516 248 495 349 q 574 0 537 147 q 535 1 553 0 q 493 3 518 3 l 424 3 q 392 240 412 119 q 338 539 372 362 q 182 263 251 395 q 58 0 112 132 l 2 7 l -54 0 q 103 256 37 148 q 218 455 168 365 q 319 662 267 545 q 269 876 292 811 q 165 941 247 941 q 140 939 147 941 q 84 922 133 938 l 84 982 q 154 1013 119 1003 q 228 1024 188 1024 "},"ù":{"x_min":42,"x_max":695.84375,"ha":752,"o":"m 576 0 l 517 6 q 481 3 501 6 q 450 0 461 1 q 466 50 456 14 q 486 131 476 86 q 371 22 433 59 q 227 -15 309 -15 q 95 30 149 -15 q 42 155 42 76 q 70 383 42 238 q 122 653 98 527 q 159 648 137 651 q 186 646 181 646 q 251 653 219 649 q 184 378 203 467 q 165 186 165 290 q 186 104 165 136 q 254 66 208 71 q 488 214 441 66 q 563 653 535 362 q 599 649 580 651 q 630 647 618 647 q 665 649 652 647 q 695 653 679 651 q 613 320 650 511 q 576 0 576 129 m 484 744 l 310 875 q 271 935 271 896 q 288 968 271 952 q 321 984 305 984 q 349 975 336 984 q 377 952 363 967 l 536 744 l 484 744 "},"W":{"x_min":69.359375,"x_max":1242.234375,"ha":1155,"o":"m 69 929 l 136 929 q 172 930 148 929 q 215 931 197 931 q 215 755 215 838 q 230 559 215 673 l 276 199 q 455 572 371 392 q 614 931 538 751 l 665 926 q 693 928 674 926 q 725 931 712 931 q 735 696 725 814 q 765 443 746 577 q 803 186 784 309 l 960 530 q 1118 931 1048 719 l 1170 926 q 1208 928 1187 926 q 1242 931 1229 930 l 1174 817 l 1087 633 l 952 354 q 875 190 912 273 q 791 0 837 106 l 750 6 q 720 3 731 6 q 704 0 710 0 q 665 367 686 188 q 616 751 644 547 q 422 355 510 541 q 270 0 334 169 q 229 7 250 3 q 210 5 221 7 q 185 0 198 3 q 69 929 138 480 "},"ï":{"x_min":8.609375,"x_max":417,"ha":329,"o":"m 128 653 q 165 649 144 652 q 197 647 185 647 q 235 649 220 647 q 269 653 250 651 q 181 311 212 469 q 150 0 150 152 q 113 4 133 1 q 81 7 94 7 q 41 4 56 7 q 8 0 26 2 q 65 218 38 102 q 110 446 92 333 q 128 653 128 559 m 116 923 q 166 902 143 923 q 180 877 173 891 q 187 848 187 863 q 179 818 187 829 q 159 793 172 806 q 116 780 146 780 q 65 800 87 780 q 44 852 44 821 q 65 902 44 881 q 116 923 87 923 m 346 923 q 395 902 372 923 q 410 879 403 892 q 417 850 417 867 q 410 822 417 834 q 389 795 403 810 q 346 780 374 780 q 297 801 317 780 q 278 852 278 823 q 297 902 278 881 q 346 923 316 923 "},">":{"x_min":173,"x_max":943,"ha":1116,"o":"m 943 380 l 173 56 l 173 129 l 840 408 l 173 682 l 173 756 l 943 434 l 943 380 "},"v":{"x_min":14.96875,"x_max":627.46875,"ha":593,"o":"m 14 655 q 84 647 51 647 q 153 655 118 647 q 191 386 166 513 l 240 119 l 362 337 q 435 481 402 409 q 510 655 468 552 q 563 647 537 647 q 627 655 596 647 q 430 340 522 501 q 250 0 338 180 q 223 4 234 2 q 204 7 212 7 q 174 4 187 7 q 153 0 161 1 q 113 222 137 105 q 70 422 89 338 q 14 655 51 505 "},"τ":{"x_min":17.71875,"x_max":611.609375,"ha":594,"o":"m 215 2 l 148 2 q 236 347 212 217 q 260 574 260 477 q 137 552 182 574 q 44 467 92 531 q 17 557 35 518 q 124 624 64 604 q 257 645 185 645 l 439 645 q 611 654 517 645 q 601 620 604 639 q 598 566 598 600 q 528 573 563 573 q 457 573 493 573 l 382 573 q 336 365 360 477 q 300 175 311 253 q 290 0 290 98 q 242 2 257 2 q 215 2 227 2 "},"û":{"x_min":42,"x_max":695.84375,"ha":752,"o":"m 576 0 l 517 6 q 481 3 501 6 q 450 0 461 1 q 466 50 456 14 q 486 131 476 86 q 371 22 433 59 q 227 -15 309 -15 q 95 30 149 -15 q 42 155 42 76 q 70 383 42 238 q 122 653 98 527 q 159 648 137 651 q 186 646 181 646 q 252 653 219 649 q 184 378 203 467 q 165 186 165 290 q 186 104 165 136 q 254 66 208 71 q 488 214 441 66 q 563 653 535 362 q 599 649 580 651 q 630 647 618 647 q 661 649 641 647 q 695 653 682 652 q 613 320 650 511 q 576 0 576 129 m 557 744 l 449 886 l 284 744 l 220 744 l 423 977 l 498 977 l 606 744 l 557 744 "},"ξ":{"x_min":44,"x_max":676.140625,"ha":683,"o":"m 627 850 q 565 939 597 908 q 482 971 533 971 q 360 905 406 971 q 315 759 315 840 q 379 629 315 666 q 543 593 443 593 q 539 570 541 581 q 537 546 538 559 l 537 519 q 459 531 492 526 q 400 535 426 535 q 244 487 309 535 q 167 350 179 439 l 167 310 l 167 271 q 300 143 184 178 q 500 102 399 122 q 604 -10 604 73 q 569 -128 604 -75 q 471 -240 534 -182 l 426 -212 q 488 -137 470 -161 q 507 -81 507 -112 q 356 8 507 -22 q 125 81 206 39 q 44 271 44 122 q 117 474 44 397 q 315 587 190 551 q 223 667 256 623 q 190 772 190 711 q 267 953 190 882 q 455 1024 345 1024 q 567 1003 515 1024 q 676 941 618 982 q 653 900 666 927 q 627 850 639 873 "},"&":{"x_min":34,"x_max":841.921875,"ha":917,"o":"m 238 722 q 309 879 238 816 q 477 943 380 943 q 599 900 548 943 q 650 787 650 858 q 588 650 650 705 q 424 540 526 595 q 514 402 470 465 q 637 229 558 338 q 727 347 690 280 q 786 493 764 413 l 799 493 q 815 455 802 479 q 841 413 828 431 q 775 298 818 354 q 670 184 731 243 q 749 82 730 107 q 816 -1 768 57 q 731 8 773 2 q 699 5 716 8 q 658 -1 682 3 q 628 45 640 24 q 586 105 616 65 q 439 14 514 47 q 281 -18 364 -18 q 106 44 179 -18 q 34 209 34 106 q 105 395 34 322 q 300 536 177 469 q 254 626 271 579 q 238 722 238 674 m 566 782 q 538 860 566 827 q 467 894 511 894 q 376 850 416 894 q 337 755 337 807 q 349 682 337 720 q 401 581 361 644 q 522 673 478 630 q 566 782 566 716 m 482 266 l 323 493 q 203 398 248 449 q 152 270 158 347 q 207 121 152 182 q 350 60 263 60 q 455 83 405 60 q 557 150 504 107 l 482 266 "},"Λ":{"x_min":-102.078125,"x_max":668.3125,"ha":725,"o":"m 668 3 l 592 3 l 519 3 q 489 245 496 191 q 458 426 481 298 l 401 770 l 206 398 q 104 194 151 293 q 19 0 57 94 l -34 6 q -72 3 -44 6 q -102 0 -99 0 q 35 240 -28 123 l 178 498 q 298 718 247 620 q 402 931 348 815 l 451 926 l 492 931 q 533 626 507 776 q 590 335 559 476 q 668 3 620 194 "},"I":{"x_min":19.0625,"x_max":355.25,"ha":377,"o":"m 168 3 l 98 3 q 46 1 65 3 q 19 0 28 0 q 133 482 84 248 q 206 931 182 716 q 242 927 225 928 q 281 926 258 926 q 329 928 311 926 q 355 931 347 931 q 245 477 291 712 q 168 3 198 243 "},"G":{"x_min":52,"x_max":944.6875,"ha":962,"o":"m 593 888 q 302 743 413 888 q 192 410 192 598 q 272 140 192 242 q 513 39 352 39 q 598 46 566 39 q 684 69 630 54 q 728 266 716 199 q 748 393 741 332 q 824 380 789 380 q 855 382 841 380 q 897 393 869 385 q 846 208 868 299 q 809 26 823 116 q 499 -18 654 4 q 419 -15 443 -18 q 303 2 394 -13 q 131 133 211 19 q 52 389 52 247 q 211 793 52 634 q 611 952 371 952 q 774 930 694 952 q 944 868 854 908 l 920 835 q 901 801 910 824 q 886 760 892 779 l 869 758 q 744 855 812 822 q 593 888 676 888 "},"ΰ":{"x_min":41,"x_max":686,"ha":758,"o":"m 686 432 q 571 121 686 256 q 287 -14 457 -14 q 112 42 183 -14 q 41 203 41 99 q 78 459 41 305 q 122 654 115 613 q 189 649 153 649 q 226 651 205 649 q 260 654 247 653 q 192 406 227 538 q 158 188 158 274 q 192 80 158 123 q 290 37 226 37 q 486 158 419 37 q 554 423 554 280 q 539 534 554 477 q 501 648 525 592 l 536 648 q 577 650 558 648 q 634 661 597 653 q 686 432 686 552 m 268 869 q 312 850 294 869 q 331 805 331 831 q 313 762 331 780 q 268 744 295 744 q 226 762 243 744 q 209 805 209 781 q 227 849 209 830 q 268 869 245 869 m 416 946 q 435 990 419 968 q 469 1012 452 1012 q 502 998 488 1012 q 516 964 516 984 q 509 937 516 950 q 501 917 503 924 l 415 726 l 374 726 l 416 946 m 578 869 q 619 849 601 869 q 637 805 637 830 q 620 762 637 780 q 578 744 604 744 q 536 762 554 744 q 519 805 519 780 q 535 850 519 831 q 578 869 552 869 "},"`":{"x_min":110,"x_max":386.3125,"ha":368,"o":"m 244 616 q 215 564 236 586 q 164 543 194 543 q 124 550 139 543 q 110 587 110 558 q 117 622 110 605 q 141 662 124 638 l 359 946 l 386 934 l 244 616 "},"Υ":{"x_min":29.9375,"x_max":762.21875,"ha":653,"o":"m 250 380 q 172 583 194 526 q 108 740 149 641 q 29 931 68 839 q 71 926 62 926 q 104 926 80 926 q 147 928 117 926 q 181 931 178 931 q 227 772 208 830 q 347 449 246 714 l 491 674 q 565 799 525 730 q 635 931 605 869 l 692 926 q 737 928 721 926 q 762 931 752 931 l 657 794 l 566 663 l 374 387 l 344 236 q 311 0 322 118 q 271 3 294 0 q 236 7 249 7 q 196 4 212 7 q 161 0 181 2 q 213 199 190 90 q 250 380 235 308 "},"r":{"x_min":3.578125,"x_max":443.046875,"ha":443,"o":"m 122 656 l 179 648 q 241 656 210 648 q 213 521 222 584 q 300 625 252 582 q 404 669 349 669 q 443 663 429 664 q 428 608 433 635 q 424 549 424 581 q 362 558 392 553 q 200 426 232 558 q 132 0 168 294 q 98 3 122 0 q 68 7 74 7 q 30 3 53 7 q 3 0 6 0 q 86 339 51 158 q 122 656 122 520 "},"x":{"x_min":-65.328125,"x_max":609.78125,"ha":603,"o":"m 126 206 l 230 320 q 144 485 187 405 q 51 655 102 566 q 123 647 87 647 q 194 655 159 647 q 242 534 219 588 q 303 402 266 480 q 419 549 386 508 q 492 655 451 591 q 543 647 517 647 q 609 655 573 647 l 443 477 l 329 351 l 396 216 q 444 118 426 151 q 513 0 462 84 q 469 3 496 0 q 438 7 442 7 q 396 3 421 7 q 366 0 370 0 q 331 90 344 58 q 254 268 318 122 q 150 136 205 209 q 53 0 95 63 q 20 3 40 0 q -5 7 0 7 q -38 3 -17 7 q -65 0 -59 0 l 126 206 "},"è":{"x_min":10,"x_max":602,"ha":651,"o":"m 141 235 q 189 100 141 153 q 317 47 238 47 q 426 76 370 47 q 528 152 481 106 l 543 138 q 526 93 535 117 q 514 49 518 69 q 408 0 462 16 q 297 -18 354 -18 q 88 61 167 -18 q 10 273 10 140 q 112 550 10 431 q 368 669 215 669 q 535 594 469 669 q 602 417 602 519 l 602 335 l 373 335 l 146 335 q 141 235 141 291 m 443 743 l 270 874 q 242 899 253 884 q 232 932 232 914 q 248 965 232 948 q 282 982 265 982 q 310 974 297 982 q 336 950 323 966 l 498 743 l 443 743 m 318 389 l 479 389 q 486 452 486 426 q 452 567 486 516 q 358 618 419 618 q 229 550 278 618 q 157 389 180 483 l 318 389 "},"μ":{"x_min":-80.453125,"x_max":696.421875,"ha":752,"o":"m 631 647 q 696 655 663 647 q 614 314 651 502 q 578 0 578 127 l 519 5 l 458 0 l 480 107 q 385 17 431 48 q 277 -14 340 -14 q 199 1 232 -14 q 129 52 165 17 q 81 -175 103 -51 q 47 -373 59 -299 q 14 -367 29 -369 q -13 -365 0 -365 q -45 -367 -28 -365 q -80 -373 -62 -370 q 1 -60 -36 -230 q 71 300 39 109 q 125 655 103 492 q 159 647 146 649 q 189 645 171 645 q 221 648 204 645 q 255 655 238 651 q 187 384 205 482 q 170 210 170 286 q 206 114 170 152 q 297 76 242 76 q 468 173 413 76 q 539 404 523 270 q 565 655 554 539 q 631 647 598 647 "},"÷":{"x_min":166,"x_max":950,"ha":1116,"o":"m 629 643 q 607 592 629 614 q 555 570 585 570 q 506 591 526 570 q 487 642 487 613 q 507 692 487 671 q 556 713 527 713 l 582 708 q 615 681 602 699 q 629 643 629 663 m 950 375 l 166 375 l 166 440 l 950 440 l 950 375 m 626 170 q 606 120 626 141 q 557 100 587 100 q 508 120 530 100 q 487 170 487 141 q 508 221 487 199 q 556 243 529 243 q 568 241 563 243 q 591 234 574 240 q 617 215 609 229 q 626 170 626 201 "},"h":{"x_min":3.890625,"x_max":654.140625,"ha":749,"o":"m 189 1024 q 217 1019 208 1020 q 247 1018 227 1018 q 271 1018 259 1018 q 316 1024 282 1018 q 278 850 301 969 q 252 719 255 731 l 218 534 q 329 633 263 598 q 469 669 394 669 q 599 623 545 669 q 654 502 654 577 q 617 223 654 409 q 575 0 580 37 q 509 8 542 4 q 478 5 496 8 q 444 0 460 2 q 509 247 485 131 q 533 469 533 363 q 502 556 533 522 q 420 590 471 590 l 403 588 q 232 476 286 570 q 161 249 178 381 q 133 0 145 116 q 98 3 122 0 q 69 7 74 7 q 30 3 54 7 q 3 0 6 0 q 129 536 69 226 q 189 1024 189 847 "},".":{"x_min":34,"x_max":199,"ha":368,"o":"m 117 159 q 175 135 152 159 q 199 75 199 111 q 175 15 199 39 q 117 -8 152 -8 q 57 16 81 -8 q 34 78 34 40 q 36 94 34 88 q 49 129 39 100 q 117 159 59 159 "},"φ":{"x_min":15,"x_max":916,"ha":979,"o":"m 397 -373 q 352 -368 374 -368 q 309 -368 329 -368 q 262 -373 290 -368 q 305 -194 282 -301 q 344 -9 329 -87 q 113 77 212 -9 q 15 301 15 164 q 119 553 15 455 q 378 652 224 652 l 403 652 l 403 605 q 209 516 277 605 q 142 292 142 428 q 200 115 142 191 q 354 40 258 40 q 381 183 369 117 q 415 368 393 249 q 475 578 437 487 q 653 669 514 669 q 844 580 773 669 q 916 366 916 491 q 795 84 916 187 q 498 -18 675 -18 l 456 -18 q 421 -188 435 -102 q 397 -373 407 -275 m 492 31 q 713 147 631 31 q 794 413 794 263 q 766 555 794 492 q 669 619 737 619 q 634 612 651 619 q 579 569 616 606 q 512 335 543 532 q 466 31 481 139 l 492 31 "},";":{"x_min":-45.921875,"x_max":309,"ha":418,"o":"m 226 644 q 284 619 260 644 q 309 560 309 594 q 283 501 309 527 q 226 476 258 476 q 169 500 192 476 q 146 560 146 525 q 158 611 146 578 q 226 644 171 644 m 94 91 q 126 149 113 133 q 174 165 140 165 q 215 155 201 165 q 230 120 230 145 q 222 87 230 103 q 197 44 215 72 l -17 -240 l -45 -225 l 94 91 "},"f":{"x_min":6.921875,"x_max":503.359375,"ha":374,"o":"m 140 596 q 57 596 98 596 q 6 591 23 592 q 19 624 16 614 q 27 655 23 633 q 89 648 58 651 q 149 645 119 645 q 243 906 173 788 q 432 1024 314 1024 q 472 1021 465 1024 q 503 1003 478 1019 q 492 963 496 979 q 474 882 488 947 l 465 878 q 431 910 451 894 q 378 931 412 925 q 274 851 294 931 q 255 651 255 771 l 409 651 q 404 625 404 643 q 404 594 404 607 q 313 594 375 594 q 248 594 252 594 l 203 339 q 173 161 188 255 q 158 0 158 67 l 89 0 l 25 0 q 87 299 57 139 q 140 596 118 458 "},"“":{"x_min":105,"x_max":640.296875,"ha":594,"o":"m 239 616 q 202 556 219 570 q 159 543 185 543 l 132 547 q 112 557 120 551 q 105 587 105 563 q 115 624 105 604 q 134 662 125 644 l 354 946 l 381 934 l 239 616 m 500 616 l 483 580 q 459 551 474 559 q 418 543 444 543 q 378 553 392 543 q 364 588 364 563 q 374 629 364 611 q 396 662 384 647 l 613 946 l 640 934 l 500 616 "},"A":{"x_min":-87.296875,"x_max":741.625,"ha":792,"o":"m 485 955 l 514 946 l 546 955 q 612 544 595 641 q 661 297 628 447 q 741 0 693 148 q 699 3 726 0 q 664 7 672 7 q 615 4 635 7 q 581 0 594 1 q 562 187 581 80 q 534 351 544 293 l 382 351 l 228 351 l 153 213 q 95 108 123 162 q 39 0 66 55 q 1 3 24 0 q -24 7 -21 7 q -61 4 -45 7 q -87 0 -77 1 q 228 485 65 217 q 485 955 391 753 m 382 418 l 519 418 l 455 760 l 261 418 l 382 418 "},"6":{"x_min":50,"x_max":650,"ha":733,"o":"m 537 851 q 302 725 394 851 q 182 438 210 599 q 287 518 229 489 q 410 548 345 548 q 579 480 509 548 q 650 312 650 413 q 555 78 650 174 q 324 -18 460 -18 q 118 68 187 -18 q 50 297 50 154 q 181 714 50 523 q 526 905 313 905 q 565 903 553 905 q 622 893 577 902 l 635 828 q 537 851 592 851 m 159 230 q 199 91 159 151 q 315 31 240 31 q 472 113 414 31 q 530 302 530 195 q 484 427 530 375 q 366 480 438 480 q 234 423 290 480 q 165 288 178 366 q 159 230 159 262 "},"‘":{"x_min":109,"x_max":388.03125,"ha":368,"o":"m 245 617 q 215 563 235 584 q 164 543 196 543 q 123 550 138 543 q 109 587 109 558 q 117 620 109 604 q 141 662 125 637 l 359 948 l 388 935 l 245 617 "},"ϊ":{"x_min":8.640625,"x_max":429,"ha":328,"o":"m 127 655 q 197 647 164 647 q 266 655 234 647 q 182 311 213 474 q 152 0 152 148 q 115 1 132 0 q 76 3 98 3 l 8 3 q 69 230 45 130 q 110 442 94 330 q 127 655 127 554 m 131 923 q 179 901 159 923 q 199 849 199 880 q 179 799 199 820 q 131 779 160 779 q 80 800 101 779 q 59 852 59 821 q 79 902 59 881 q 131 923 99 923 m 359 923 q 409 901 389 923 q 429 849 429 880 q 410 799 429 819 q 360 779 392 779 q 311 800 332 779 q 290 852 290 821 q 309 902 290 882 q 359 923 329 923 "},"π":{"x_min":11.28125,"x_max":922.25,"ha":913,"o":"m 637 0 q 597 2 605 2 q 566 2 588 2 l 497 2 q 584 339 559 229 q 610 576 610 450 l 486 576 l 354 576 q 308 374 332 479 q 271 181 284 268 q 259 0 259 94 q 224 2 241 2 q 185 2 208 2 l 118 2 q 188 290 159 151 q 233 574 216 428 q 124 548 170 574 q 38 467 77 523 q 26 516 30 502 q 11 557 22 530 q 130 628 63 610 q 286 647 197 647 l 679 647 l 709 647 l 738 647 q 922 655 836 647 q 912 614 915 638 q 910 566 910 589 q 826 573 866 573 q 732 573 785 573 q 686 372 710 477 q 649 180 662 267 q 637 0 637 94 "},"ά":{"x_min":11,"x_max":805.03125,"ha":831,"o":"m 671 326 q 715 120 694 201 q 746 1 736 40 l 682 1 l 617 1 q 602 72 611 30 q 584 155 593 115 q 459 29 528 73 q 298 -14 390 -14 q 92 65 173 -14 q 11 273 11 145 q 116 548 11 427 q 373 669 222 669 q 532 625 471 669 q 640 488 593 581 q 661 542 651 513 q 694 652 671 570 l 749 652 l 805 652 q 671 326 730 492 m 355 744 l 546 940 q 583 970 566 960 q 621 980 600 980 q 657 965 641 980 q 673 928 673 949 q 653 896 673 917 q 623 870 634 875 l 412 744 l 355 744 m 132 237 q 175 92 132 149 q 300 35 217 35 q 486 135 411 35 q 561 351 561 236 q 511 533 561 449 q 373 618 462 618 q 194 495 256 618 q 132 237 132 372 "},"O":{"x_min":42,"x_max":1038,"ha":1080,"o":"m 602 952 q 912 846 786 952 q 1038 555 1038 741 q 874 149 1038 317 q 478 -18 711 -18 q 165 88 288 -18 q 42 387 42 195 q 68 571 42 439 q 248 827 95 703 q 602 952 402 952 m 593 887 q 294 734 408 887 q 181 385 181 582 q 261 139 181 235 q 485 43 341 43 q 785 189 670 43 q 901 528 901 335 q 891 650 901 595 q 849 762 881 705 q 747 853 817 820 q 593 887 677 887 "},"n":{"x_min":3.578125,"x_max":653,"ha":750,"o":"m 122 654 l 179 646 q 245 654 213 646 q 211 522 224 590 q 328 630 267 592 q 467 669 390 669 q 599 623 546 669 q 653 496 653 577 q 648 436 653 468 q 638 375 644 404 l 602 178 q 586 82 594 135 q 575 0 579 28 q 509 7 542 3 q 478 5 496 7 q 444 0 460 2 q 506 247 479 120 q 533 468 533 375 q 498 556 527 524 q 417 588 470 588 q 240 489 298 588 q 163 253 181 390 q 132 0 145 116 q 98 3 122 0 q 68 6 74 6 q 30 3 53 6 q 3 0 6 0 q 87 339 52 160 q 122 654 122 518 "},"3":{"x_min":2.71875,"x_max":644,"ha":734,"o":"m 40 154 l 54 146 q 125 65 76 93 q 236 38 175 38 q 415 106 341 38 q 490 281 490 175 q 452 396 490 348 q 349 444 415 444 q 306 439 330 444 q 258 431 281 435 l 270 504 q 298 502 285 502 q 325 502 311 502 q 469 563 411 502 q 528 711 528 624 q 488 815 528 775 q 385 856 449 856 q 280 821 323 856 q 215 725 236 787 l 201 725 q 191 764 197 745 q 166 821 185 782 q 407 910 276 910 q 573 858 502 910 q 644 712 644 807 q 595 581 644 639 q 409 478 547 524 q 558 419 500 466 q 617 284 617 373 q 497 65 617 148 q 236 -18 378 -18 q 113 -7 175 -18 q 2 25 50 3 q 20 90 10 60 q 40 154 29 121 "},"9":{"x_min":40.609375,"x_max":674,"ha":734,"o":"m 52 131 q 122 63 85 88 q 205 39 159 39 q 416 158 340 39 q 521 438 492 277 q 427 369 477 392 q 315 347 376 347 q 143 417 210 347 q 76 594 76 487 q 172 818 76 726 q 400 911 268 911 q 601 825 529 911 q 674 605 674 740 q 543 178 674 374 q 201 -18 413 -18 q 137 -12 170 -18 q 69 0 104 -6 q 52 63 59 32 q 40 129 46 95 l 52 131 m 204 592 q 244 466 204 517 q 357 416 285 416 q 506 490 451 416 q 562 663 562 564 q 520 802 562 746 q 398 858 478 858 q 278 797 330 858 q 216 687 225 737 q 205 627 206 638 q 204 592 204 616 "},"l":{"x_min":8.171875,"x_max":330.75,"ha":331,"o":"m 196 1023 q 227 1018 217 1019 q 258 1017 236 1017 q 330 1023 289 1017 q 221 516 272 789 q 141 0 170 242 q 106 4 125 1 q 74 7 87 7 q 38 4 53 7 q 8 0 24 2 q 122 506 72 234 q 196 1023 172 778 "},"κ":{"x_min":4.078125,"x_max":660.140625,"ha":649,"o":"m 483 145 l 596 0 q 551 3 581 0 q 515 7 521 7 q 472 4 491 7 q 441 0 453 1 q 325 177 375 104 q 209 336 274 250 l 182 336 q 157 172 170 262 q 133 0 144 83 q 98 3 122 0 q 69 7 74 7 q 30 3 54 7 q 4 0 6 0 q 74 315 44 145 q 122 654 104 485 q 183 647 153 647 q 251 654 220 647 q 193 385 219 526 l 216 383 q 347 475 277 416 q 524 654 416 534 q 594 648 562 648 q 657 654 620 648 l 660 640 q 570 578 628 620 q 457 497 511 537 l 311 387 q 483 145 396 265 "},"4":{"x_min":19.203125,"x_max":667.421875,"ha":734,"o":"m 397 250 q 208 250 329 250 q 19 250 87 250 l 28 298 q 177 468 61 336 q 411 736 294 600 q 561 909 529 871 q 578 906 566 907 q 603 903 591 904 l 653 903 q 599 696 619 777 q 555 509 578 616 l 521 340 q 595 340 548 340 q 667 345 642 340 q 647 279 647 311 l 647 247 q 562 247 614 247 q 505 247 510 247 q 477 114 487 173 q 467 0 467 55 l 404 7 q 363 3 389 7 q 332 0 337 0 q 364 116 348 54 q 397 250 379 179 m 416 335 q 480 597 443 439 q 521 773 517 754 l 379 620 q 224 440 239 459 q 134 335 208 421 l 416 335 "},"p":{"x_min":-80.8125,"x_max":685,"ha":750,"o":"m -22 -145 q 64 267 19 52 q 124 653 108 483 q 183 648 153 648 q 217 650 198 648 q 245 653 236 652 l 220 556 q 322 639 263 609 q 446 669 380 669 q 620 589 556 669 q 685 392 685 509 q 586 110 685 234 q 335 -14 488 -14 q 218 24 270 -14 q 141 126 165 62 l 111 -25 q 79 -189 94 -104 q 48 -373 64 -274 q 17 -367 34 -370 q -14 -365 0 -365 q -46 -367 -29 -365 q -80 -373 -63 -370 q -44 -241 -59 -298 q -22 -145 -29 -184 m 562 406 q 525 542 562 484 q 416 601 489 601 q 232 487 294 601 q 171 240 171 373 q 209 112 171 163 q 320 61 248 61 q 472 135 414 61 q 541 272 530 209 q 557 366 552 335 q 562 406 562 396 "},"ψ":{"x_min":44,"x_max":957,"ha":1029,"o":"m 829 438 q 824 513 829 481 q 801 641 820 546 q 861 647 831 641 q 927 664 890 653 q 948 569 939 619 q 957 478 957 519 q 829 117 957 249 q 474 -14 701 -14 q 419 -373 441 -186 l 373 -367 q 286 -373 324 -367 l 338 -154 l 368 -9 q 134 79 225 8 q 44 288 44 149 q 59 463 44 363 q 90 655 75 563 q 121 651 104 651 q 155 651 139 651 q 192 652 172 651 q 223 655 213 653 q 177 473 194 567 q 160 292 160 379 q 215 110 160 179 q 376 41 271 41 q 451 432 421 256 q 499 785 482 609 q 533 778 513 782 q 566 774 554 774 q 592 776 582 774 q 634 785 601 777 q 586 571 608 678 q 533 301 563 465 q 486 39 504 138 q 741 150 653 39 q 829 438 829 262 "},"Ü":{"x_min":73,"x_max":973.0625,"ha":973,"o":"m 261 928 l 342 928 q 255 608 290 763 q 204 300 220 452 l 204 275 l 204 236 q 275 98 204 147 q 439 49 347 49 q 583 80 517 49 q 705 202 648 112 q 809 525 763 291 q 856 929 856 759 l 915 929 l 973 929 q 881 528 921 723 q 803 229 841 333 q 675 53 766 125 q 417 -18 585 -18 q 173 44 274 -18 q 73 244 73 107 q 82 321 73 275 q 111 458 92 368 q 154 672 131 548 q 194 928 178 797 l 261 928 m 523 1203 q 571 1180 552 1203 q 593 1129 593 1158 q 571 1078 593 1097 q 523 1060 549 1060 q 472 1080 494 1060 q 451 1130 451 1101 q 472 1181 451 1159 q 523 1203 493 1203 m 754 1203 q 801 1181 781 1203 q 822 1128 822 1159 q 802 1079 822 1098 q 752 1060 782 1060 q 703 1080 725 1060 q 682 1130 682 1101 q 703 1181 682 1159 q 754 1203 724 1203 "},"à":{"x_min":-11,"x_max":560.671875,"ha":629,"o":"m 157 -14 q 38 29 87 -14 q -11 147 -11 72 q 95 317 -11 270 q 304 374 195 344 q 425 492 412 404 q 395 583 425 549 q 309 618 366 618 q 206 590 250 618 q 132 511 161 563 l 109 517 q 118 580 118 548 l 118 616 q 231 661 193 651 q 309 672 270 672 q 462 633 397 672 q 528 510 528 594 q 521 434 528 479 q 514 374 515 390 l 468 142 q 460 92 464 117 q 472 63 460 78 q 498 48 484 48 q 542 59 518 48 l 560 23 q 443 -10 509 -10 q 379 15 400 -10 q 351 89 358 41 q 261 11 304 36 q 157 -14 217 -14 m 409 744 l 235 875 q 208 901 220 884 q 197 935 197 919 q 214 968 197 952 q 247 984 231 984 q 275 975 262 984 q 302 952 288 967 l 464 744 l 409 744 m 101 159 q 128 86 101 114 q 200 58 156 58 q 305 98 254 58 q 367 194 356 139 l 394 345 q 173 283 245 313 q 101 159 101 253 "},"η":{"x_min":4.515625,"x_max":654,"ha":751,"o":"m 69 6 q 31 3 54 6 q 4 0 7 0 q 88 338 54 165 q 122 654 122 511 l 180 646 q 246 654 214 646 q 212 522 225 588 q 326 629 261 589 q 466 669 391 669 q 600 623 546 669 q 654 496 654 577 q 639 375 654 436 l 547 -112 q 523 -254 536 -173 q 505 -373 510 -334 q 471 -367 486 -369 q 442 -365 456 -365 q 410 -368 429 -365 q 376 -373 392 -371 q 452 -63 419 -201 q 509 216 485 74 q 534 460 534 359 q 504 551 534 515 q 419 588 474 588 q 312 556 377 588 q 208 431 248 524 q 155 221 167 339 q 133 0 143 103 q 99 3 122 0 q 69 6 75 6 "}}}
